<?xml version="1.0" encoding="UTF-8"?>
<!DOCTYPE svg PUBLIC "-//W3C//DTD SVG 1.0//EN" "http://www.w3.org/TR/2001/REC-SVG-20010904/DTD/svg10.dtd">
<!-- Creator: CorelDRAW X8 -->
<svg xmlns="http://www.w3.org/2000/svg" xml:space="preserve" width="300px" height="250px" version="1.0" style="shape-rendering:geometricPrecision; text-rendering:geometricPrecision; image-rendering:optimizeQuality; fill-rule:evenodd; clip-rule:evenodd"
viewBox="0 0 300 250"
 xmlns:xlink="http://www.w3.org/1999/xlink">
 <defs>
  <style type="text/css">
   <![CDATA[
    .str6 {stroke:#264D79;stroke-width:2.18742}
    .str2 {stroke:#264D79;stroke-width:2.2949}
    .str7 {stroke:#264D79;stroke-width:3.25869}
    .str4 {stroke:#8EC8C6;stroke-width:2.18742;stroke-linecap:round}
    .str5 {stroke:#AAEDED;stroke-width:2.18742;stroke-linecap:round}
    .str0 {stroke:#3B54CD;stroke-width:4.37484;stroke-linecap:round}
    .str1 {stroke:#AAEDED;stroke-width:2.2949;stroke-linecap:round}
    .str9 {stroke:#001C44;stroke-width:7.14573;stroke-linecap:round}
    .str8 {stroke:#3B54CD;stroke-width:6.56226;stroke-linecap:round}
    .str3 {stroke:#001C44;stroke-width:3.28113;stroke-linecap:round}
    .str10 {stroke:#264D79;stroke-width:8.74968;stroke-linecap:round}
    .fil5 {fill:none;fill-rule:nonzero}
    .fil23 {fill:#000E5B;fill-rule:nonzero}
    .fil12 {fill:#001C44;fill-rule:nonzero}
    .fil13 {fill:#03AA99;fill-rule:nonzero}
    .fil9 {fill:#1D4174;fill-rule:nonzero}
    .fil18 {fill:#21A382;fill-rule:nonzero}
    .fil16 {fill:#2338A0;fill-rule:nonzero}
    .fil6 {fill:#3B54CD;fill-rule:nonzero}
    .fil26 {fill:#3B54CD;fill-rule:nonzero}
    .fil19 {fill:#3DC19A;fill-rule:nonzero}
    .fil0 {fill:#3DD8C6;fill-rule:nonzero}
    .fil4 {fill:#3FC6A7;fill-rule:nonzero}
    .fil11 {fill:#4D7EAC;fill-rule:nonzero}
    .fil20 {fill:#628AE2;fill-rule:nonzero}
    .fil10 {fill:#85B8ED;fill-rule:nonzero}
    .fil22 {fill:#8EC8C6;fill-rule:nonzero}
    .fil17 {fill:#90DBAC;fill-rule:nonzero}
    .fil7 {fill:#AAEDED;fill-rule:nonzero}
    .fil14 {fill:#BA5964;fill-rule:nonzero}
    .fil15 {fill:#DD7979;fill-rule:nonzero}
    .fil2 {fill:#DF9736;fill-rule:nonzero}
    .fil24 {fill:#DF9A36;fill-rule:nonzero}
    .fil21 {fill:#E4F6FF;fill-rule:nonzero}
    .fil25 {fill:#F9BA4F;fill-rule:nonzero}
    .fil8 {fill:#FF9A8C;fill-rule:nonzero}
    .fil1 {fill:#FFC152;fill-rule:nonzero}
    .fil3 {fill:#FFC854;fill-rule:nonzero}
   ]]>
  </style>
 </defs>
 <g id="Layer_x0020_1">
  <metadata id="CorelCorpID_0Corel-Layer"/>
  <path class="fil0" d="M173 109c0,3 3,6 8,6 4,0 8,-3 8,-4 4,0 8,1 10,2 2,0 4,2 3,8 0,6 -5,48 -5,48 0,0 -12,6 -29,1 1,1 -11,-46 -12,-49 -1,-4 -2,-8 2,-9 3,-1 15,-3 15,-3z"/>
  <polygon class="fil1" points="1258,37 1160,37 1160,-29 1258,-29 "/>
  <path class="fil2" d="M1160 -29l46 42c2,1 4,1 6,0l46 -42 -98 0z"/>
  <polygon class="fil2" points="1258,37 1209,-14 1258,33 "/>
  <polygon class="fil2" points="1160,37 1209,-14 1160,33 "/>
  <path class="fil3" d="M1160 -29l45 38c2,2 6,2 8,0l45 -38 -98 0z"/>
  <path class="fil4" d="M1250 37c0,0 -3,-2 -3,-5 0,-3 2,-4 4,-5 2,-1 3,-3 3,-6 0,-2 1,-5 5,-5 3,1 4,1 7,-2 2,-2 5,-2 6,-1 2,2 2,5 0,6 -3,3 -3,3 -4,6 -1,3 0,6 -1,8 -1,2 -3,2 -5,2 -2,1 -2,2 -2,2l-10 0z"/>
  <path class="fil5 str0" d="M1270 15c-6,3 -14,12 -16,22"/>
  <path class="fil6" d="M1186 -60c0,-1 1,-2 2,-2 1,0 1,1 1,2 0,1 0,1 -1,1 -1,0 -2,0 -2,-1z"/>
  <path class="fil7" d="M1171 -11c0,0 0,1 1,1 1,1 3,1 4,1 1,0 1,0 2,1 1,0 3,1 4,0 0,0 0,0 0,0l-11 -3z"/>
  <path class="fil7" d="M1182 -12c0,1 0,3 0,4 -1,0 -3,0 -4,-1 -1,-1 -2,0 -4,0 -1,-1 -3,-1 -3,-2 0,-1 3,-1 5,-1 2,0 4,-1 4,-1l2 1z"/>
  <path class="fil5 str1" d="M1179 -11c0,0 0,-1 -1,-1"/>
  <path class="fil5 str1" d="M1177 -11c0,0 0,-1 0,-1"/>
  <path class="fil5 str1" d="M1175 -11c0,0 0,0 0,-1"/>
  <path class="fil8" d="M1183 -15l-1 3c0,0 0,0 0,0 0,0 -1,1 -1,1 -1,0 -1,-2 -1,-2l0 -3 3 1z"/>
  <path class="fil9" d="M1198 -40l-1 3 -10 0c0,0 -3,0 -3,2 -1,3 -4,19 -4,19 0,0 2,2 3,1 0,0 5,-10 6,-13 1,-2 0,-5 0,-5l13 -1 -4 -6z"/>
  <path class="fil7" d="M1183 -4c0,0 0,0 1,0 1,0 3,-1 3,-2 1,0 1,-1 3,-1 1,-1 2,-2 2,-2 1,-1 0,-1 0,-1l-9 6z"/>
  <path class="fil7" d="M1190 -13c0,1 2,2 2,3 0,1 -2,2 -3,2 -1,1 -2,2 -3,3 -1,1 -3,1 -3,1 -1,-1 1,-3 2,-4 2,-2 2,-3 2,-3l3 -2z"/>
  <path class="fil5 str1" d="M1188 -10c0,0 -1,0 -1,0"/>
  <path class="fil5 str1" d="M1187 -8c0,0 -1,-1 -1,-1"/>
  <path class="fil5 str1" d="M1186 -7c0,0 -1,0 -1,-1"/>
  <path class="fil8" d="M1189 -15l1 2c0,0 0,1 -1,1 0,0 1,1 0,1 -1,0 -2,0 -2,0l-1 -4 3 0z"/>
  <path class="fil10" d="M1206 -41c0,1 1,2 1,3 1,1 3,3 2,6 -1,2 -4,3 -6,3 -2,0 -4,0 -6,0 -1,0 -11,-2 -11,-2 0,0 1,0 2,2 0,2 1,14 1,14 0,1 -1,1 -3,1 0,0 -3,-10 -4,-13 -1,-4 -3,-7 -2,-9 0,-2 4,-2 7,-2 3,0 10,1 12,1l-1 -3 8 -1z"/>
  <path class="fil11" d="M1209 -32c1,-3 -1,-5 -2,-6 0,-1 -1,-2 -1,-3l-8 1 0 2c0,0 5,0 7,-2 0,0 1,2 1,3 1,2 1,5 -3,6 -3,0 -16,-2 -17,-2 -2,0 -2,1 -1,3 1,2 2,5 3,10 0,2 1,5 1,5 0,0 0,0 0,0 0,0 -1,-12 -1,-14 -1,-2 -2,-2 -2,-2 0,0 10,2 11,2 2,0 4,0 6,0 2,0 5,-1 6,-3z"/>
  <path class="fil5 str2" d="M1203 -41c0,2 1,3 1,5 0,2 -2,4 -7,3 -5,0 -13,-1 -13,-1 -1,0 -1,1 0,4 1,3 3,12 4,16"/>
  <path class="fil5 str2" d="M1204 -35c0,0 -1,0 -2,-1 -1,0 -1,-4 -1,-4"/>
  <path class="fil5 str2" d="M1186 -15c1,0 2,0 3,-1"/>
  <path class="fil12" d="M1202 -70c0,0 -1,-1 -4,-1 -3,0 -4,2 -5,3 0,2 0,5 3,7 0,0 -1,0 0,1 0,0 -2,1 -2,2 -1,0 0,1 0,2 0,1 0,1 -1,3 -1,1 -2,3 0,6 1,3 4,5 9,5 4,0 9,-2 10,-8 2,-7 -3,-9 -4,-8 0,0 2,-3 1,-7 0,-4 -2,-5 -4,-6 -2,0 -3,1 -3,1z"/>
  <path class="fil8" d="M1201 -57c0,1 -1,1 -2,1 0,1 -5,8 -5,8 0,0 -5,-7 -6,-8 0,-1 -4,-2 -5,-2 0,1 0,2 0,2 0,1 0,2 1,2 1,0 3,1 3,1 0,0 4,9 5,10 1,1 1,1 2,0 1,-1 5,-7 5,-7l2 -7z"/>
  <path class="fil13" d="M1201 -57c-1,1 -1,1 -2,1 0,1 -1,4 -1,4 0,0 3,-1 3,-2 1,-1 1,-2 1,-2l-1 -1z"/>
  <path class="fil0" d="M1205 -58c0,0 0,0 0,0 1,0 3,1 3,1 1,1 0,5 -1,8 0,1 -3,5 -1,9 0,0 -4,2 -8,0 -1,-2 0,-4 0,-6 -1,-1 -2,-2 -2,-3 0,-3 3,-4 5,-7 1,-1 2,-1 2,-2 1,0 2,0 2,0z"/>
  <path class="fil8" d="M1206 -57c1,-1 2,0 3,2 1,1 4,11 4,12 0,1 -1,12 -1,13 -1,1 -1,1 -2,1 -2,0 -6,0 -6,0 0,0 0,-1 1,-1 1,0 4,0 5,-1 0,-1 0,-12 0,-12 0,0 -4,-7 -4,-9 -1,-2 -1,-4 0,-5z"/>
  <path class="fil13" d="M1207 -57c-1,0 -3,1 -1,5 0,0 1,-3 3,-2 0,0 -1,-4 -2,-3z"/>
  <path class="fil8" d="M1203 -61l1 1 1 2c0,0 -1,1 -1,1 -1,1 -1,2 -3,2 0,0 1,-1 0,-2 0,0 0,-2 0,-2l2 -2z"/>
  <path class="fil14" d="M1203 -61c0,0 0,1 0,2 0,0 0,1 -2,2 0,0 0,-2 0,-2l2 -2z"/>
  <path class="fil14" d="M1197 -64c0,1 -1,3 -1,3 0,0 1,0 1,0 0,0 1,-1 1,-2 -1,0 -1,-1 -1,-1z"/>
  <path class="fil8" d="M1200 -69c-2,0 -3,1 -3,3 0,2 0,3 0,4 0,1 0,2 1,3 0,1 1,1 2,1 1,0 2,-1 3,-2 0,0 0,-1 0,-1 0,0 2,0 2,-2 1,-1 1,-7 -5,-6z"/>
  <path class="fil12" d="M1203 -61c0,0 1,-1 1,-2 0,-2 -2,-2 -2,0 0,0 -1,-1 -2,-2 -2,-2 -2,-3 -2,-3 0,-3 4,-2 4,-2 0,0 2,-1 4,0 1,1 2,4 1,7 -1,2 -3,3 -3,3l-1 -1z"/>
  <path class="fil12" d="M1198 -63c0,0 1,-1 1,-1 0,0 0,1 0,1 0,0 0,0 0,0 0,0 -1,0 -1,0z"/>
  <path class="fil12" d="M1198 -64l2 0c0,0 0,0 -1,0 -1,-1 -1,0 -1,0z"/>
  <path class="fil14" d="M1203 -63c0,-1 0,-1 0,0 0,0 0,0 0,0 0,0 1,0 1,0 0,0 0,0 0,0 0,0 0,0 -1,0z"/>
  <path class="fil14" d="M1203 -63c0,0 0,0 0,0 0,0 0,0 0,0 0,0 0,0 0,0 0,1 0,1 0,1 0,0 0,0 0,0 0,0 0,0 1,0 0,-1 0,-1 -1,-1z"/>
  <path class="fil8" d="M1201 -56c0,0 0,1 0,2 0,1 1,1 2,0 1,-1 1,-3 2,-4 0,0 0,0 0,0l-4 2z"/>
  <path class="fil9" d="M1186 -58c0,0 0,3 1,6 1,0 0,1 0,1l-2 1c0,0 0,0 0,-1 -1,-1 -1,-4 0,-8l1 1z"/>
  <path class="fil8" d="M1185 -57c0,0 1,0 1,0 0,1 -1,1 -1,1 0,0 1,0 1,0 0,1 -1,1 -1,1 0,0 0,0 0,0 0,1 -1,1 -1,1 0,0 0,-1 0,-1 0,-1 1,-2 1,-2z"/>
  <path class="fil8" d="M1188 -56c0,-1 0,-1 -1,-1 -1,-1 -2,-1 -2,-1 0,0 1,1 1,2l2 0z"/>
  <path class="fil9" d="M1184 -59l3 1c1,0 2,-5 1,-5l-4 0 0 4z"/>
  <path class="fil6" d="M1184 -63c-1,0 -5,-2 -6,-6 -4,-1 -6,13 -2,13 1,-2 6,-3 8,-3 1,1 1,-4 0,-4z"/>
  <path class="fil5 str3" d="M1199 -73c1,0 3,2 3,3"/>
  <path class="fil15" d="M1097 -30c3,3 6,5 10,4 5,-1 9,-6 9,-6 0,0 1,1 1,2 0,0 -3,7 -9,8 -6,1 -12,-3 -12,-3l1 -5z"/>
  <path class="fil6" d="M1150 7c3,3 7,4 11,2l7 -3c1,-1 3,0 3,1l13 19c1,2 0,4 -1,5 -4,2 -12,6 -22,5 -12,-1 -21,-13 -35,-35 -14,-22 -21,-35 -17,-47 3,-9 10,-15 14,-17 2,-1 3,-1 4,1l13 19c0,1 0,3 -1,4l-6 5c-3,2 -4,7 -2,11l19 30z"/>
  <path class="fil16" d="M1134 -35l5 -4c1,-1 1,-3 1,-4l-7 -10 -6 -10c-1,-1 -3,-1 -4,0 -1,1 -3,2 -4,4l15 24z"/>
  <path class="fil16" d="M1177 33c3,-1 4,-2 6,-2 1,-1 2,-3 1,-4l-13 -20c-1,-1 -2,-2 -3,-1l-6 3 15 24z"/>
  <path class="fil2" d="M1097 -30l3 2c0,0 1,3 -1,5l-3 -2 1 -5z"/>
  <path class="fil17" d="M1057 37c0,0 2,-2 4,-5 1,-3 0,-6 -2,-6 -3,1 -3,-1 -4,-3 0,-3 -4,-7 -7,-7 -4,1 -1,5 -1,6 0,2 1,3 -1,4 -2,0 -3,2 -2,4 2,2 4,2 4,4 0,2 1,2 2,3l7 0z"/>
  <path class="fil5 str0" d="M1050 19c0,0 5,7 4,18"/>
  <path class="fil4" d="M1104 37c0,0 2,-2 1,-5 -1,-4 -5,-6 -4,-8 1,-2 4,-1 6,2 2,2 2,8 -1,11l-2 0z"/>
  <path class="fil5 str0" d="M1104 25c0,0 5,5 1,12"/>
  <path class="fil18" d="M1108 37c0,0 3,-2 5,-7 2,-5 2,-10 0,-12 -2,-2 -4,0 -5,3 0,3 1,11 -3,16l3 0z"/>
  <path class="fil5 str0" d="M1111 19c0,0 1,5 0,10 -2,5 -4,8 -4,8"/>
  <path class="fil17" d="M1159 37c0,0 0,-7 -5,-13 -5,-5 -11,-8 -16,-6 -4,2 -3,6 0,8 4,2 17,3 18,11l3 0z"/>
  <path class="fil5 str0" d="M1138 21c7,0 18,6 19,16"/>
  <path class="fil19" d="M1160 37c0,0 4,-4 3,-11 -1,-6 -7,-8 -8,-5 -1,3 5,9 3,16l2 0z"/>
  <path class="fil5 str0" d="M1158 22c1,1 4,8 1,15"/>
  <path class="fil20" d="M1265 38l-224 0c-1,0 -1,-1 -1,-1 0,-1 0,-1 1,-1l224 0c0,0 1,0 1,1 0,0 -1,1 -1,1z"/>
  <path class="fil21" d="M1234 59l-139 0c-9,0 -17,-8 -17,-17l0 -4 173 0 0 4c0,9 -8,17 -17,17z"/>
  <path class="fil22" d="M1102 35c1,0 0,1 -1,1 -1,1 -3,1 -3,0 -1,0 -2,0 -3,0 -1,0 -3,0 -3,0 0,0 0,-1 0,-1l10 0z"/>
  <path class="fil22" d="M1092 32c0,1 0,2 0,3 1,1 2,1 4,1 1,-1 2,0 3,0 2,0 3,0 3,-1 1,-1 -2,-1 -4,-2 -2,0 -3,-1 -3,-1l-3 0z"/>
  <path class="fil5 str4" d="M1096 33c0,0 0,0 0,-1"/>
  <path class="fil5 str4" d="M1097 34c0,0 0,-1 0,-1"/>
  <path class="fil5 str4" d="M1098 34c0,0 1,0 1,-1"/>
  <path class="fil8" d="M1092 29l0 3c0,0 1,0 1,0 0,0 0,1 0,1 1,0 2,-1 2,-1l0 -3 -3 0z"/>
  <path class="fil7" d="M1068 36c0,0 -1,0 -2,-1 0,-1 -1,-3 -1,-3 0,-1 0,-2 0,-3 -1,-1 -1,-2 -1,-3 0,0 1,0 1,0l3 10z"/>
  <path class="fil7" d="M1068 25c0,0 -2,0 -3,1 -1,1 0,2 1,3 0,2 0,3 0,4 0,2 1,3 2,3 1,0 0,-3 1,-5 0,-2 0,-3 0,-3l-1 -3z"/>
  <path class="fil5 str5" d="M1068 29c0,0 0,0 1,0"/>
  <path class="fil5 str5" d="M1068 30c0,0 0,0 1,1"/>
  <path class="fil5 str5" d="M1068 32c0,0 0,0 1,0"/>
  <path class="fil8" d="M1070 24l-2 1c0,0 0,1 0,1 0,0 0,0 0,1 0,1 1,1 1,1l3 -2 -2 -2z"/>
  <path class="fil9" d="M1098 -15c-3,0 -6,1 -6,1 -1,0 -3,3 -3,4 -1,2 0,4 0,5 2,8 4,13 4,16 1,2 -1,2 -1,5 0,4 0,13 0,13 0,0 2,1 3,0 0,0 3,-14 3,-16 1,-3 1,-4 1,-8 0,-7 -1,-20 -1,-20z"/>
  <path class="fil10" d="M1098 -9c0,3 -4,6 -4,6 -1,1 -6,20 -7,21 -1,1 -15,8 -15,8 -1,0 -1,0 -1,-1 0,0 -1,-1 -1,-1 0,0 0,0 0,0 0,0 0,0 0,0 0,0 7,-8 9,-8 2,-1 3,-1 3,-1l0 0c2,-9 2,-16 3,-21 1,-1 1,-2 1,-3 1,-1 1,-1 1,-2 0,0 0,0 1,-1 0,0 0,0 0,0 0,0 0,-1 0,-1 0,0 0,-1 0,-1 0,0 0,-1 1,-1 0,0 0,0 0,0 0,0 0,0 0,0l0 0 0 0 2 2 2 1 5 3z"/>
  <path class="fil11" d="M1093 -12c-1,0 -1,1 -2,1 -2,2 -3,5 -4,10 -1,7 -3,16 -4,16 0,1 -2,1 -5,3 -2,2 -6,6 -7,7 0,0 -1,-1 -1,-1 0,0 0,0 0,0 0,0 0,0 0,0 0,0 7,-8 9,-8 2,-1 3,-1 3,-1l0 0c2,-9 2,-16 3,-21 1,-1 1,-2 1,-3 1,-1 1,-1 1,-2 0,0 0,0 1,-1 0,0 0,0 0,0 0,0 0,-1 0,-1 0,0 0,-1 0,-1 0,0 0,-1 1,-1 0,0 0,0 0,0 0,0 0,0 0,0l0 0 2 2 2 1z"/>
  <path class="fil11" d="M1098 -9c0,0 -2,2 -6,3 -4,0 -6,-2 -6,-2l2 -2 10 1z"/>
  <path class="fil5 str6" d="M1094 -12c-1,2 -3,3 -3,4 -1,2 -2,5 -3,12 -2,7 -3,12 -3,12 -1,1 -3,1 -7,4 -3,2 -6,4 -7,5"/>
  <path class="fil5 str6" d="M1094 -8c0,0 -1,4 -5,4"/>
  <path class="fil5 str6" d="M1071 23c0,1 1,2 2,3"/>
  <polygon class="fil8" points="1093,-34 1097,-31 1099,-36 1095,-38 "/>
  <path class="fil14" d="M1098 -34c0,0 -4,-2 -3,-4l4 2 -1 2z"/>
  <path class="fil1" d="M1097 -31c0,0 1,1 1,2 0,2 0,4 0,8 1,3 1,12 1,12 0,0 -3,1 -7,1 -3,0 -5,-2 -5,-2 0,0 0,-13 2,-18 1,-5 4,-6 4,-6l4 3z"/>
  <path class="fil14" d="M1101 -42c0,1 1,2 1,3 1,0 -1,0 -1,0l0 -3z"/>
  <path class="fil8" d="M1095 -38c0,0 0,0 0,1 0,0 4,2 4,2 1,0 2,0 2,-3 0,-3 -1,-6 -3,-7 -2,-1 -4,0 -5,2 -2,2 0,5 2,5z"/>
  <path class="fil12" d="M1095 -38l-1 1c0,0 0,0 -1,-1 -1,-1 -2,-3 -2,-4 0,-1 2,-2 2,-2 0,0 1,-3 4,-5 4,-1 6,1 3,3 0,0 2,1 0,2 -1,1 -4,1 -4,1 0,0 1,0 1,1 -1,0 -3,0 -3,0l0 1c0,0 0,0 -1,1 -1,0 0,2 2,2z"/>
  <path class="fil5 str3" d="M1092 -47c0,0 -1,2 1,3 0,0 -2,0 -2,-2"/>
  <path class="fil12" d="M1099 -41c0,0 0,0 0,0 -1,0 -1,0 -1,0 1,0 1,0 1,0 0,0 0,0 0,0z"/>
  <path class="fil12" d="M1099 -42l-1 1c0,0 0,-1 0,-1 1,0 1,0 1,0z"/>
  <path class="fil14" d="M1094 -40c0,0 0,0 0,0 0,0 0,0 0,0 0,0 -1,0 -1,1 0,0 0,0 0,0 0,-1 0,-1 1,-1z"/>
  <path class="fil14" d="M1094 -40c0,0 0,0 0,0 0,0 0,0 0,0 0,0 0,1 0,1 0,0 0,0 1,0 0,0 0,0 0,0 -1,0 -1,0 -1,0 0,0 -1,-1 0,-1z"/>
  <path class="fil2" d="M1092 -31c-1,0 -2,2 -1,5 1,2 2,5 2,5 0,0 3,-1 4,-3 0,0 -1,-4 -2,-5 0,-1 -1,-3 -3,-2z"/>
  <path class="fil2" d="M1096 -17c1,1 2,2 3,2 0,-1 0,-2 0,-4l-3 -4 -2 0 -1 2c0,0 2,3 3,4z"/>
  <path class="fil8" d="M1093 -31c-2,0 -3,3 -1,7 2,4 5,7 7,8 1,2 8,1 14,0 0,0 3,-2 4,-2 2,-2 2,-4 0,-4 -1,0 -3,2 -3,2 0,0 -1,-1 -1,-2 0,0 -1,0 -1,1 0,0 0,2 0,2 -1,0 -10,1 -11,0 -1,-1 -3,-4 -4,-7 -2,-4 -2,-6 -4,-5z"/>
  <path class="fil1" d="M1092 -32c-1,1 -2,3 -1,5 1,3 2,6 2,6 0,0 3,-1 5,-3 0,0 -2,-4 -2,-5 -1,-2 -2,-4 -4,-3z"/>
  <path class="fil5 str7" d="M217 75c0,0 9,-12 27,-4 19,7 37,37 20,74"/>
  <path class="fil13" d="M218 83c0,2 -9,-1 -8,-3l1 -3c1,-3 4,-4 6,-3 2,1 4,3 3,6l-2 3z"/>
  <path class="fil6" d="M210 80c-1,2 8,5 8,3 1,-2 -7,-5 -8,-3z"/>
  <path class="fil23" d="M213 81c0,0 0,1 0,0 -1,0 -1,0 -1,0 0,-1 0,-1 1,-1 0,1 1,1 0,1z"/>
  <path class="fil23" d="M216 82c0,1 0,1 -1,0 0,0 0,0 0,0 0,-1 0,-1 1,0 0,0 0,0 0,0z"/>
  <path class="fil19" d="M243 185c0,0 -4,-1 -6,-4 -3,-3 -1,-11 3,-13 4,-3 7,-5 6,-11 0,-7 2,-11 7,-12 5,-1 7,-1 12,-5 5,-5 10,-6 12,-3 2,2 0,6 -1,9 -1,3 3,7 4,10 0,3 0,7 -4,9 -4,2 -7,4 -7,8 1,4 -2,11 -10,12l-16 0z"/>
  <path class="fil5 str8" d="M270 143c0,0 -19,15 -22,42"/>
  <path class="fil20" d="M289 190l-288 0c-1,0 -1,-1 -1,-2 0,0 0,-1 1,-1l288 0c0,0 1,1 1,1 0,1 -1,2 -1,2z"/>
  <path class="fil21" d="M249 218l-178 0c-12,0 -22,-10 -22,-22l0 -6 222 0 0 6c0,12 -10,22 -22,22z"/>
  <path class="fil9" d="M166 174c0,0 30,-9 39,-11 10,-3 27,-10 32,-3 5,6 -1,15 -16,19 -15,4 -55,4 -55,4l0 -9z"/>
  <path class="fil8" d="M220 112c4,-3 12,-9 17,-23 1,-4 1,-7 1,-9 -2,-2 -2,-5 -4,-8 -3,-3 -6,-7 0,-7 3,0 6,0 8,2 1,1 3,5 4,6 1,3 0,6 -1,10 0,5 -2,31 -23,42l-2 -13z"/>
  <path class="fil8" d="M176 102c0,0 0,4 -1,5 0,1 0,2 -4,3 0,0 2,5 9,6 8,1 11,-4 10,-4 0,0 -2,-1 -3,-2 0,0 0,-8 0,-8l-11 0z"/>
  <path class="fil14" d="M187 104c0,0 -1,3 -5,3 -5,0 -6,-3 -6,-3l0 -2 11 0 0 2z"/>
  <path class="fil8" d="M169 90c0,0 -3,0 -4,1 -1,2 1,5 3,6 2,0 3,-1 3,-1l-2 -6z"/>
  <path class="fil14" d="M167 92c0,-1 1,-1 2,0 0,0 -1,0 -1,0 -1,0 -2,0 -2,1 0,0 0,0 0,0 0,-1 0,-1 1,-1z"/>
  <path class="fil14" d="M167 92c0,0 0,0 0,0 0,0 0,0 0,0 0,1 0,1 0,1 0,1 1,2 2,2 0,0 0,0 0,0 -1,0 -2,0 -2,-1 -1,-1 -1,-2 0,-2z"/>
  <path class="fil8" d="M191 86c0,0 2,-2 4,0 1,1 1,4 -1,6 -2,1 -3,0 -3,0l0 -6z"/>
  <path class="fil14" d="M194 86c-1,0 -2,1 -2,1 0,0 0,0 0,0 1,0 2,-1 3,0 0,0 0,0 0,0 0,0 -1,-1 -1,-1z"/>
  <path class="fil14" d="M193 87c0,0 0,0 0,0 0,0 0,0 1,0 0,1 0,1 0,1 0,1 0,2 -1,2 0,0 0,0 0,0 1,0 2,-1 2,-1 0,-1 -1,-2 -2,-2z"/>
  <path class="fil8" d="M183 74c-2,0 -4,0 -6,0 -2,0 -3,1 -5,2 -3,3 -5,8 -4,12 0,0 0,0 0,0 0,1 1,3 1,4l1 1c0,2 1,4 3,6 2,5 7,6 10,5 3,0 7,-3 8,-8 1,-3 0,-5 0,-7l0 -2c0,-1 0,-2 0,-3 0,0 0,0 0,0 -1,-5 -4,-8 -8,-10z"/>
  <path class="fil12" d="M184 87c0,0 1,-1 1,-1 1,0 2,0 2,1 0,0 -1,1 -1,1 -1,0 -1,0 -2,-1z"/>
  <path class="fil12" d="M185 83l5 1c0,0 0,-2 -2,-2 -1,-1 -2,-1 -3,0 0,0 0,1 0,1z"/>
  <path class="fil12" d="M175 85l-4 4c0,0 -1,-2 1,-4 0,-1 1,-1 2,-1 1,0 1,1 1,1z"/>
  <path class="fil12" d="M177 89c0,-1 -1,-1 -2,-1 0,0 -1,1 0,1 0,1 0,1 1,1 1,0 1,-1 1,-1z"/>
  <path class="fil14" d="M181 88c0,0 -1,5 0,6 0,0 1,1 1,1 1,0 1,-1 2,-1 0,-1 -2,-6 -3,-6z"/>
  <path class="fil5 str9" d="M162 78c0,0 5,-1 6,1"/>
  <path class="fil5 str9" d="M162 73c0,0 5,1 6,6"/>
  <path class="fil12" d="M170 79c0,0 3,4 8,6 5,1 8,-5 7,-7 0,0 5,8 6,8 0,0 1,-4 1,-7 -1,-4 -2,-5 -4,-7 -2,-1 -3,0 -4,0 -1,-1 -4,-5 -9,-4 -6,0 -8,4 -7,10 0,0 -2,0 -4,2 -1,3 1,8 2,10 0,0 2,0 3,0 0,0 -1,-4 0,-8 0,-3 1,-3 1,-3z"/>
  <path class="fil13" d="M187 153c0,0 0,0 1,0 2,0 1,-2 0,-3 -1,-2 -9,-8 -9,-8l-6 0 -7 3 -3 2c1,3 1,5 2,7 2,-2 9,-5 10,-6 1,0 2,1 2,1 2,0 3,1 4,1 0,1 1,1 1,1 1,0 2,1 3,1 1,1 1,1 2,1z"/>
  <line class="fil5 str10" x1="213" y1="140" x2="218" y2= "142" />
  <line class="fil5 str10" x1="212" y1="144" x2="216" y2= "146" />
  <path class="fil5 str7" d="M149 160c6,0 16,1 25,-8 8,-7 15,-19 32,-14"/>
  <path class="fil13" d="M214 138c2,1 -2,9 -4,8l-3 -2c-2,-1 -3,-4 -2,-6 1,-2 4,-3 6,-2l3 2z"/>
  <path class="fil8" d="M153 119c0,0 -14,25 -17,29 -2,4 -2,9 -1,10 1,2 8,2 14,0 7,-3 24,-11 26,-12 0,0 1,1 3,2 2,1 4,1 5,2 2,1 4,3 6,2 2,-1 -2,-6 -3,-9 -2,-2 -8,-4 -11,-4 -4,1 -25,8 -25,8l7 -13 -4 -15z"/>
  <path class="fil0" d="M158 112c-3,1 -4,3 -8,9 -3,6 -8,14 -8,14 0,0 4,5 12,7l5 -9 -1 -21z"/>
  <path class="fil0" d="M199 113c4,0 15,3 21,-1 0,0 4,7 3,15 0,0 -8,7 -22,4l-2 -18z"/>
  <polygon class="fil8" points="200,175 212,179 211,185 198,184 "/>
  <path class="fil10" d="M200 175c0,0 -27,-9 -38,-13 -10,-4 -25,-11 -31,-5 -6,6 -1,16 13,21 15,5 55,7 55,7 1,-3 2,-6 1,-10z"/>
  <path class="fil22" d="M224 176c0,0 0,1 0,4 0,4 -2,6 -3,11 0,0 -1,-4 -1,-8 1,-5 4,-7 4,-7z"/>
  <path class="fil13" d="M205 185c2,0 5,2 7,3 2,2 3,3 7,3 0,0 0,-9 1,-12 1,-3 1,-3 1,-3 0,0 -3,0 -5,0 -1,1 -2,1 -4,1 -3,0 -4,0 -6,0 -2,3 -1,7 -1,8z"/>
  <path class="fil7" d="M219 191c1,0 2,0 2,0 1,-1 -1,-4 0,-9 1,-3 3,-6 3,-6 0,-1 -2,-1 -3,0 -1,0 -6,6 -2,15z"/>
  <path class="fil11" d="M200 180l0 0c0,0 -19,-1 -38,-4 -19,-3 -32,-9 -33,-14 -1,6 4,12 15,16 15,5 55,7 55,7 0,-2 1,-3 1,-5z"/>
  <path class="fil5 str7" d="M197 174c0,3 -1,7 -2,10"/>
  <path class="fil13" d="M159 133c0,0 3,-6 1,-14 0,0 3,10 0,15l-1 -1z"/>
  <path class="fil13" d="M201 131c0,0 1,-6 0,-12 0,0 1,3 1,12l-1 0z"/>
  <path class="fil24" d="M115 165c3,-1 7,-1 10,1 2,2 1,2 0,2 -3,0 -6,3 -6,3 0,0 -4,0 -5,-3 -1,-4 1,-3 1,-3z"/>
  <path class="fil25" d="M106 187l19 0c4,0 7,0 9,-2 3,-2 3,-6 3,-9 0,-1 -3,0 -6,-1 -3,0 -5,-2 -7,-4 -1,-2 -2,-3 -6,-5 -2,-1 -3,-1 -3,-1 0,0 1,-2 3,-4 2,-2 -2,-3 -6,-1 -3,2 -5,4 -7,6 -2,1 -5,1 -8,-1 -4,-3 -16,-14 -30,-13 -13,2 -23,13 -24,21 -2,8 1,13 3,14l60 0z"/>
  <path class="fil25" d="M44 173c-4,-2 -13,-2 -21,4 -7,6 -10,18 -4,26 6,9 17,10 19,8 1,-1 -6,-5 -8,-11 0,0 4,2 6,3 3,0 -3,-6 -4,-13 -1,-6 3,-13 10,-13l2 -4z"/>
  <path class="fil12" d="M137 180c-1,0 0,-2 -1,-2 0,1 0,2 0,2 -1,-1 -3,-3 -2,-4 0,-1 3,-1 3,-1 1,1 2,4 0,5z"/>
  <path class="fil24" d="M65 163c0,0 5,0 7,6 2,5 0,9 -2,10 0,0 7,0 11,2 3,2 3,6 3,6l2 0c0,0 0,-5 -4,-7 -3,-2 -6,-2 -8,-2 0,0 2,-5 0,-10 -3,-5 -7,-6 -9,-5z"/>
  <path class="fil24" d="M92 179c0,0 8,-1 11,2 3,2 3,6 3,6l2 0c0,0 0,-4 -3,-7 -4,-2 -11,-2 -13,-1z"/>
  <path class="fil12" d="M114 176c0,0 0,-2 2,-3 2,0 3,2 3,2 0,0 -1,-1 -3,-1 -1,1 -2,2 -2,2z"/>
  <path class="fil6" d="M123 49l15 15 -5 5 -16 -13 6 -7zm20 19l0 0c0,0 1,1 1,1 0,1 0,1 0,2 0,0 0,1 0,1 0,1 0,1 -1,2 0,0 -1,1 -1,1 -1,0 -1,0 -2,0 0,0 -1,0 -1,0 -1,0 -1,0 -2,-1 0,0 -1,-1 -1,-1 0,-1 0,-1 0,-2 0,0 0,-1 0,-1 0,-1 0,-1 1,-2 0,0 1,-1 1,-1 1,0 1,0 2,0 0,0 1,0 1,0 1,0 1,0 2,1z"/>
  <path class="fil6" d="M154 54l-7 1c0,-1 0,-2 0,-3 0,-1 0,-2 0,-3 0,0 1,-1 1,-2 1,0 1,-1 1,-1 1,0 1,-1 2,-1 0,0 0,-1 0,-1 0,-1 0,-1 0,-1 0,0 0,-1 -1,-1 0,0 0,0 -1,0 0,0 -1,0 -2,0 0,0 -1,0 -1,0 -1,1 -2,1 -2,1 -1,1 -2,1 -2,1 -1,1 -1,1 -2,2l-3 -8c1,0 1,-1 2,-1 0,0 1,-1 2,-1 0,-1 1,-1 2,-2 1,0 2,0 3,0 1,-1 3,-1 4,-1 2,0 3,1 5,1 1,1 2,2 3,3 1,1 2,2 2,4 0,1 0,2 0,3 0,1 0,1 -1,2 0,1 -1,1 -1,2 -1,0 -1,1 -2,1 -1,1 -1,1 -1,2 -1,1 -1,2 -1,3zm2 5l0 0c0,0 0,1 0,1 0,1 0,1 0,2 -1,0 -1,1 -1,1 -1,0 -1,1 -2,1 0,0 -1,0 -2,0 0,0 -1,0 -1,-1 -1,0 -1,0 -1,-1 -1,0 -1,-1 -1,-1 0,-1 0,-1 0,-2 0,0 0,-1 0,-1 1,-1 1,-1 2,-2 0,0 0,0 1,0 1,-1 1,-1 2,0 0,0 1,0 1,0 1,0 1,1 1,1 1,1 1,1 1,2z"/>
  <path class="fil26" d="M67 123c0,-1 0,-2 0,-3 0,-2 1,-2 1,-3l-2 0 -2 0 -6 0 0 -1c0,0 0,0 0,-1l0 -3c0,0 0,0 0,-1 2,-1 3,-3 4,-5 2,-2 3,-4 4,-6 2,0 4,0 5,0 1,0 3,0 4,0 0,2 0,5 0,7 -1,2 -1,4 -1,5 1,0 2,0 2,0 1,0 1,0 1,0 0,0 1,0 1,0 0,1 0,3 0,4l0 1c-1,0 -2,0 -3,0l-1 0c0,1 0,3 0,6 -1,0 -2,0 -3,0 -1,0 -3,0 -4,0zm1 -11l1 -7c-1,1 -2,2 -2,2 0,1 -1,2 -1,2l-2 3 4 0zm23 -12c1,0 3,0 4,1 2,0 3,2 4,3 1,2 1,4 1,6 0,2 0,4 -1,6 0,1 -1,3 -2,4 -1,1 -2,2 -3,2 -1,1 -3,1 -5,1 -1,0 -2,0 -3,-1 -1,0 -2,-1 -3,-2 -1,-1 -2,-2 -2,-3 -1,-1 -1,-3 -1,-4 0,-2 0,-4 1,-6 0,-2 1,-3 2,-4 1,-1 2,-2 3,-3 2,0 3,0 5,0zm-1 5c0,0 0,0 -1,0 0,0 -1,1 -1,2 0,0 -1,1 -1,2 0,1 0,3 0,4 0,1 0,2 0,3 0,1 1,1 1,2 1,0 1,0 2,0 0,0 0,0 1,0 0,0 0,0 1,-1 0,0 0,-1 1,-2 0,-1 0,-1 0,-2 0,-1 0,-2 0,-3 0,-2 0,-3 0,-4 -1,-1 -2,-1 -3,-1zm21 18c0,-1 0,-2 1,-3 0,-2 0,-2 0,-3l-2 0 -1 0 -7 0 0 -1c0,0 0,0 0,-1l1 -3c0,0 0,0 0,-1 1,-1 2,-3 3,-5 2,-2 3,-4 5,-6 1,0 3,0 4,0 2,0 3,0 4,0 0,2 0,5 0,7 0,2 0,4 0,5 0,0 1,0 1,0 1,0 1,0 1,0 0,0 1,0 1,0 0,1 0,3 0,4l0 1c-1,0 -2,0 -3,0l-1 0c0,1 0,3 0,6 -1,0 -2,0 -3,0 -1,0 -2,0 -4,0zm2 -11l0 -7c-1,1 -1,2 -2,2 0,1 -1,2 -1,2l-2 3 5 0z"/>
 </g>
</svg>
