<?xml version="1.0" encoding="UTF-8"?>
<!DOCTYPE svg PUBLIC "-//W3C//DTD SVG 1.0//EN" "http://www.w3.org/TR/2001/REC-SVG-20010904/DTD/svg10.dtd">
<!-- Creator: CorelDRAW X8 -->
<svg xmlns="http://www.w3.org/2000/svg" xml:space="preserve" width="300px" height="200px" version="1.0" style="shape-rendering:geometricPrecision; text-rendering:geometricPrecision; image-rendering:optimizeQuality; fill-rule:evenodd; clip-rule:evenodd"
viewBox="0 0 300 200"
 xmlns:xlink="http://www.w3.org/1999/xlink">
 <defs>
  <style type="text/css">
   <![CDATA[
    .str6 {stroke:#264D79;stroke-width:2.18742}
    .str2 {stroke:#264D79;stroke-width:2.2949}
    .str4 {stroke:#8EC8C6;stroke-width:2.18742;stroke-linecap:round}
    .str5 {stroke:#AAEDED;stroke-width:2.18742;stroke-linecap:round}
    .str0 {stroke:#3B54CD;stroke-width:4.37484;stroke-linecap:round}
    .str1 {stroke:#AAEDED;stroke-width:2.2949;stroke-linecap:round}
    .str3 {stroke:#001C44;stroke-width:3.28113;stroke-linecap:round}
    .fil5 {fill:none;fill-rule:nonzero}
    .fil12 {fill:#001C44;fill-rule:nonzero}
    .fil13 {fill:#03AA99;fill-rule:nonzero}
    .fil9 {fill:#1D4174;fill-rule:nonzero}
    .fil19 {fill:#21A382;fill-rule:nonzero}
    .fil17 {fill:#2338A0;fill-rule:nonzero}
    .fil6 {fill:#3B54CD;fill-rule:nonzero}
    .fil20 {fill:#3DC19A;fill-rule:nonzero}
    .fil14 {fill:#3DD8C6;fill-rule:nonzero}
    .fil4 {fill:#3FC6A7;fill-rule:nonzero}
    .fil11 {fill:#4D7EAC;fill-rule:nonzero}
    .fil21 {fill:#628AE2;fill-rule:nonzero}
    .fil10 {fill:#85B8ED;fill-rule:nonzero}
    .fil23 {fill:#8EC8C6;fill-rule:nonzero}
    .fil18 {fill:#90DBAC;fill-rule:nonzero}
    .fil7 {fill:#AAEDED;fill-rule:nonzero}
    .fil15 {fill:#BA5964;fill-rule:nonzero}
    .fil16 {fill:#DD7979;fill-rule:nonzero}
    .fil2 {fill:#DF9736;fill-rule:nonzero}
    .fil22 {fill:#E4F6FF;fill-rule:nonzero}
    .fil0 {fill:#E4F6FF;fill-rule:nonzero}
    .fil8 {fill:#FF9A8C;fill-rule:nonzero}
    .fil1 {fill:#FFC152;fill-rule:nonzero}
    .fil3 {fill:#FFC854;fill-rule:nonzero}
   ]]>
  </style>
 </defs>
 <g id="Layer_x0020_1">
  <metadata id="CorelCorpID_0Corel-Layer"/>
  <g id="_2340443022192">
   <path class="fil0" d="M28 110c-17,10 -25,34 -12,66l266 0c5,-12 7,-27 8,-36 2,-19 -5,-40 -16,-50 -30,-27 -49,1 -64,-15 -9,-9 -14,-25 -21,-37 -16,-27 -45,-40 -73,-35 -20,3 -37,13 -47,30 -15,24 -4,41 -11,57 -7,18 -19,13 -30,20z"/>
   <polygon class="fil1" points="249,176 152,176 152,110 249,110 "/>
   <path class="fil2" d="M152 110l46 42c1,1 4,1 6,0l45 -42 -97 0z"/>
   <polygon class="fil2" points="249,176 201,125 249,172 "/>
   <polygon class="fil2" points="152,176 201,125 152,172 "/>
   <path class="fil3" d="M152 110l45 38c2,2 5,2 7,0l45 -38 -97 0z"/>
   <path class="fil4" d="M241 176c0,0 -3,-2 -2,-5 0,-3 2,-4 4,-5 2,-1 2,-3 2,-6 0,-2 2,-5 5,-5 4,1 5,1 7,-2 3,-2 6,-2 7,-1 1,2 2,5 0,6 -3,3 -4,3 -4,6 -1,3 0,6 -1,8 -2,2 -4,2 -5,2 -2,1 -2,2 -2,2l-11 0z"/>
   <path class="fil5 str0" d="M261 154c-5,3 -14,12 -15,22"/>
   <path class="fil6" d="M178 79c0,-1 1,-2 1,-2 1,0 2,1 2,2 0,1 -1,1 -2,1 0,0 -1,0 -1,-1z"/>
   <path class="fil7" d="M163 128c0,0 0,1 1,1 1,1 3,1 3,1 1,0 2,0 3,1 1,0 3,1 3,0 1,0 1,0 1,0l-11 -3z"/>
   <path class="fil7" d="M174 127c0,1 0,3 0,4 -1,0 -3,0 -4,-1 -1,-1 -2,0 -4,0 -2,-1 -3,-1 -3,-2 0,-1 3,-1 5,-1 2,0 3,-1 3,-1l3 1z"/>
   <path class="fil5 str1" d="M170 128c0,0 0,-1 0,-1"/>
   <path class="fil5 str1" d="M169 128c0,0 0,-1 -1,-1"/>
   <path class="fil5 str1" d="M167 128c0,0 0,0 0,-1"/>
   <path class="fil8" d="M175 124l-1 3c0,0 0,0 -1,0 0,0 0,1 0,1 -1,0 -2,-2 -2,-2l1 -3 3 1z"/>
   <path class="fil9" d="M189 99l0 3 -10 0c0,0 -3,0 -4,2 0,3 -3,19 -3,19 0,0 1,2 3,1 0,0 5,-10 6,-13 0,-2 0,-5 0,-5l12 -1 -4 -6z"/>
   <path class="fil7" d="M174 135c0,0 1,0 2,0 1,0 3,-1 3,-2 1,0 1,-1 2,-1 1,0 3,-2 3,-2 0,-1 0,-1 0,-1l-10 6z"/>
   <path class="fil7" d="M181 126c1,1 3,2 3,3 -1,1 -2,2 -3,2 -2,1 -2,2 -3,3 -2,1 -3,1 -4,1 0,-1 2,-3 3,-4 2,-2 2,-3 2,-3l2 -2z"/>
   <path class="fil5 str1" d="M179 129c0,0 0,0 -1,0"/>
   <path class="fil5 str1" d="M178 131c0,0 0,-1 0,-1"/>
   <path class="fil5 str1" d="M177 132c0,0 0,0 -1,-1"/>
   <path class="fil8" d="M181 124l0 2c0,0 0,1 0,1 0,0 0,1 0,1 -1,0 -2,0 -2,0l-1 -4 3 0z"/>
   <path class="fil10" d="M197 98c1,1 2,2 2,3 1,1 2,3 1,6 -1,2 -3,3 -5,3 -3,0 -4,0 -6,0 -1,0 -11,-2 -11,-2 0,0 1,0 1,2 1,2 2,14 2,14 -1,1 -2,1 -3,1 0,0 -3,-9 -4,-13 -2,-3 -3,-7 -3,-9 1,-2 4,-2 8,-2 3,0 10,1 11,1l-1 -3 8 -1z"/>
   <path class="fil11" d="M200 107c1,-3 0,-5 -1,-6 0,-1 -1,-2 -2,-3l-8 1 1 2c0,0 4,0 6,-2 0,0 2,2 2,3 1,2 0,5 -3,6 -3,0 -16,-2 -18,-2 -1,0 -1,1 0,3 1,2 1,5 2,10 1,2 1,5 1,5 1,0 1,0 1,0 0,0 -1,-12 -2,-14 0,-2 -1,-2 -1,-2 0,0 10,2 11,2 2,0 3,0 6,0 2,0 4,-1 5,-3z"/>
   <path class="fil5 str2" d="M194 98c1,2 2,3 2,5 0,2 -2,4 -7,3 -5,0 -13,-1 -14,-1 0,0 0,1 1,4 1,3 3,13 4,16"/>
   <path class="fil5 str2" d="M196 104c0,0 -2,0 -2,-1 -1,0 -2,-4 -2,-4"/>
   <path class="fil5 str2" d="M178 124c0,0 2,0 3,-1"/>
   <path class="fil12" d="M194 69c0,0 -2,-1 -5,-1 -2,0 -4,2 -4,3 -1,2 -1,5 2,7 0,0 -1,0 0,1 0,0 -1,1 -2,2 0,0 0,1 1,2 0,1 0,1 -1,3 -1,1 -3,3 -1,6 2,3 5,5 9,5 5,0 10,-2 11,-8 1,-7 -3,-9 -4,-8 0,0 1,-3 1,-7 -1,-4 -2,-5 -4,-6 -2,0 -3,1 -3,1z"/>
   <path class="fil8" d="M193 82c-1,1 -2,1 -2,1 -1,1 -6,8 -6,8 0,0 -4,-7 -5,-8 -1,-1 -4,-2 -5,-2 -1,1 0,2 0,2 0,1 0,2 1,2 0,1 3,1 3,1 0,0 4,9 5,10 0,1 1,1 2,0 1,-1 5,-7 5,-7l2 -7z"/>
   <path class="fil13" d="M193 82c-1,1 -2,1 -2,1 -1,1 -1,4 -1,4 0,0 2,-1 3,-2 0,-1 0,-2 0,-2l0 -1z"/>
   <path class="fil14" d="M196 81c0,0 1,0 1,0 1,0 2,1 3,1 0,1 0,5 -1,8 0,1 -3,5 -1,9 0,0 -4,2 -9,0 0,-2 0,-4 0,-6 0,-1 -1,-2 -1,-3 0,-3 3,-4 5,-7 1,-1 1,-1 2,-2 1,0 1,0 1,0z"/>
   <path class="fil8" d="M198 82c1,-1 2,0 3,2 0,1 3,11 4,12 0,1 -1,12 -2,13 0,1 0,1 -2,1 -1,0 -6,0 -6,0 0,0 1,0 2,-1 1,0 4,0 4,-1 1,-1 1,-12 1,-12 0,0 -4,-7 -5,-9 -1,-2 0,-4 1,-5z"/>
   <path class="fil13" d="M198 82c-1,0 -2,2 -1,5 0,0 2,-3 4,-2 0,0 -1,-4 -3,-3z"/>
   <path class="fil8" d="M195 78l1 1 1 2c0,0 -1,1 -2,1 0,1 -1,2 -2,2 0,0 0,-1 0,-2 0,0 -1,-2 -1,-2l3 -2z"/>
   <path class="fil15" d="M195 78c0,0 0,1 0,2 0,0 -1,1 -2,2 0,0 -1,-2 -1,-2l3 -2z"/>
   <path class="fil15" d="M189 75c0,1 -1,3 -1,3 0,0 1,0 1,0 0,0 1,-1 0,-2 0,0 0,-1 0,-1z"/>
   <path class="fil8" d="M191 70c-1,0 -2,2 -2,3 0,2 0,3 0,4 0,1 0,2 0,3 1,1 2,1 3,1 1,0 2,-1 2,-2 1,0 1,-1 1,-1 0,0 1,0 2,-2 1,-1 0,-7 -6,-6z"/>
   <path class="fil12" d="M195 78c0,0 1,-1 1,-2 0,-2 -2,-2 -2,0 0,0 -2,-1 -3,-2 -1,-2 -1,-3 -1,-3 0,-3 4,-2 4,-2 0,0 2,-1 4,0 1,1 2,4 1,7 -1,2 -3,3 -3,3l-1 -1z"/>
   <path class="fil12" d="M190 76c0,0 0,-1 0,-1 1,0 1,1 1,1 0,0 0,0 -1,0 0,0 0,0 0,0z"/>
   <path class="fil12" d="M190 75l1 0c0,0 0,0 0,0 -1,-1 -1,0 -1,0z"/>
   <path class="fil15" d="M195 76c0,-1 0,0 -1,0 0,0 0,0 0,0 1,0 1,0 1,0 0,0 1,0 1,0 -1,0 -1,0 -1,0z"/>
   <path class="fil15" d="M195 76c0,0 0,0 0,0 0,0 0,0 0,0 0,0 0,0 0,0 0,1 0,1 -1,1 0,0 0,0 0,0 1,0 1,0 1,0 0,-1 0,-1 0,-1z"/>
   <path class="fil8" d="M193 83c0,0 -1,1 -1,2 1,1 2,1 3,0 1,-1 1,-3 2,-4 0,0 0,0 0,0l-4 2z"/>
   <path class="fil9" d="M178 81c0,0 0,3 1,6 0,0 0,1 0,1l-2 1c0,0 -1,0 -1,-1 0,-1 0,-4 1,-8l1 1z"/>
   <path class="fil8" d="M176 82c1,0 1,0 1,0 0,1 0,1 0,1 0,0 0,0 0,0 0,1 0,1 0,1 0,0 0,0 0,0 0,1 -1,1 -1,1 0,0 0,-1 -1,-1 0,-1 1,-2 1,-2z"/>
   <path class="fil8" d="M180 83c0,0 -1,-1 -2,-1 -1,-1 -1,-1 -1,-1 0,0 0,1 1,2l2 0z"/>
   <path class="fil9" d="M175 81l4 0c1,0 1,-5 1,-5l-4 0 -1 5z"/>
   <path class="fil6" d="M176 76c-1,0 -6,-2 -7,-6 -3,-1 -5,13 -1,13 1,-2 6,-3 7,-2 1,0 2,-5 1,-5z"/>
   <path class="fil5 str3" d="M191 66c1,0 3,2 3,3"/>
   <path class="fil16" d="M89 109c3,3 6,5 10,4 5,-1 9,-6 9,-6 0,0 1,1 1,2 0,0 -3,7 -9,8 -7,1 -12,-3 -12,-3l1 -5z"/>
   <path class="fil6" d="M142 146c2,3 7,4 11,2l6 -3c2,-1 3,0 4,1l13 20c0,1 0,3 -1,4 -5,2 -13,6 -22,5 -13,-1 -21,-13 -35,-35 -14,-22 -22,-35 -17,-47 3,-9 10,-15 14,-17 1,-1 3,-1 4,1l12 19c1,1 1,3 0,4l-6 5c-4,2 -4,7 -2,11l19 30z"/>
   <path class="fil17" d="M126 104l5 -4c1,-1 1,-3 0,-4l-6 -10 -6 -9c-1,-2 -3,-2 -4,-1 -1,1 -3,2 -5,4l16 24z"/>
   <path class="fil17" d="M169 172c2,-1 4,-2 6,-2 1,-1 1,-3 1,-4l-13 -20c-1,-1 -2,-2 -4,-1l-5 3 15 24z"/>
   <path class="fil2" d="M89 109l2 2c0,0 2,3 0,5l-3 -2 1 -5z"/>
   <path class="fil18" d="M49 176c0,0 2,-2 3,-5 2,-3 1,-6 -2,-6 -2,1 -2,-1 -3,-3 -1,-3 -4,-7 -7,-7 -4,1 -2,5 -1,6 0,2 1,4 -1,4 -3,0 -4,2 -2,4 2,2 4,2 4,4 0,2 1,2 2,3l7 0z"/>
   <path class="fil5 str0" d="M41 159c0,0 6,6 4,17"/>
   <path class="fil4" d="M96 176c0,0 1,-2 0,-5 -1,-4 -4,-6 -3,-8 1,-2 4,-1 6,2 1,2 2,8 -1,11l-2 0z"/>
   <path class="fil5 str0" d="M95 164c0,0 5,5 2,12"/>
   <path class="fil19" d="M99 176c0,0 4,-2 6,-7 2,-4 2,-10 0,-12 -2,-1 -4,0 -5,3 0,3 1,11 -3,16l2 0z"/>
   <path class="fil5 str0" d="M103 158c0,0 1,5 -1,10 -1,5 -4,8 -4,8"/>
   <path class="fil18" d="M150 176c0,0 0,-7 -5,-12 -5,-6 -11,-9 -16,-7 -3,2 -2,6 1,8 3,2 17,3 17,11l3 0z"/>
   <path class="fil5 str0" d="M130 160c7,0 17,6 19,16"/>
   <path class="fil20" d="M152 176c0,0 3,-4 3,-11 -1,-6 -7,-8 -8,-5 -1,3 5,9 3,16l2 0z"/>
   <path class="fil5 str0" d="M150 161c1,1 4,8 1,15"/>
   <path class="fil21" d="M256 177l-223 0c-1,0 -1,-1 -1,-1 0,-1 0,-1 1,-1l223 0c1,0 1,0 1,1 0,0 0,1 -1,1z"/>
   <path class="fil22" d="M225 198l-138 0c-9,0 -17,-8 -17,-17l0 -4 173 0 0 4c0,9 -8,17 -18,17z"/>
   <path class="fil23" d="M94 174c0,0 0,1 -1,1 -1,1 -3,1 -4,0 0,0 -1,0 -2,0 -1,1 -3,0 -3,0 -1,0 -1,-1 -1,-1l11 0z"/>
   <path class="fil23" d="M84 171c0,1 -1,2 -1,3 1,1 3,1 4,1 1,-1 2,0 4,0 1,0 3,0 3,-1 0,-1 -2,-1 -4,-2 -2,0 -3,-1 -3,-1l-3 0z"/>
   <path class="fil5 str4" d="M87 172c0,0 1,0 1,-1"/>
   <path class="fil5 str4" d="M89 173c0,0 0,-1 0,-1"/>
   <path class="fil5 str4" d="M90 173c0,0 0,0 1,0"/>
   <path class="fil8" d="M84 168l0 3c0,0 0,0 1,0 0,0 0,1 0,1 1,0 2,-1 2,-1l0 -3 -3 0z"/>
   <path class="fil7" d="M60 175c-1,0 -1,0 -2,-1 -1,-1 -1,-3 -1,-3 0,-1 0,-2 0,-3 -1,-1 -1,-2 -1,-3 0,0 1,0 1,0l3 10z"/>
   <path class="fil7" d="M60 164c-1,0 -3,0 -3,1 -1,1 0,2 0,3 1,2 0,3 1,4 0,2 1,3 2,3 0,0 0,-3 0,-5 0,-2 1,-3 1,-3l-1 -3z"/>
   <path class="fil5 str5" d="M59 168c0,0 1,0 2,0"/>
   <path class="fil5 str5" d="M59 169c0,0 1,1 1,1"/>
   <path class="fil5 str5" d="M59 171c0,0 1,0 1,0"/>
   <path class="fil8" d="M62 163l-2 1c0,0 0,1 0,1 0,0 -1,1 -1,1 1,1 2,1 2,1l3 -2 -2 -2z"/>
   <path class="fil9" d="M90 124c-3,0 -6,1 -6,1 -1,0 -3,3 -4,4 0,2 1,4 1,5 2,8 3,13 4,16 0,2 -1,2 -1,5 0,4 0,13 0,13 0,0 1,1 3,0 0,0 3,-14 3,-16 0,-3 0,-4 1,-8 0,-7 -1,-20 -1,-20z"/>
   <path class="fil10" d="M90 130c-1,3 -4,6 -4,6 -1,1 -7,20 -7,21 -1,1 -15,8 -15,8 -1,0 -1,0 -2,-1 0,0 0,-1 0,-1 0,0 0,0 0,0 0,0 0,0 0,0 0,0 7,-8 9,-8 2,-1 3,-1 3,-1l0 0c2,-9 2,-16 3,-21 0,-1 1,-2 1,-3 0,-1 1,-1 1,-2 0,0 0,0 0,-1 0,0 0,0 0,0 0,0 1,-1 1,-1 0,0 0,-1 0,-1 0,0 0,0 0,-1 0,0 0,0 0,0 0,0 0,0 0,0l0 0 0 0 3 2 1 1 6 3z"/>
   <path class="fil11" d="M84 127c0,0 -1,1 -1,1 -2,2 -3,5 -4,10 -2,7 -4,16 -4,17 0,0 -2,0 -5,2 -3,2 -6,6 -8,7 0,0 0,-1 0,-1 0,0 0,0 0,0 0,0 0,0 0,0 0,0 7,-8 9,-8 2,-1 3,-1 3,-1l0 0c2,-9 2,-16 3,-21 0,-1 1,-2 1,-3 0,-1 1,-1 1,-2 0,0 0,0 0,-1 0,0 0,0 0,0 0,0 1,-1 1,-1 0,0 0,-1 0,-1 0,0 0,0 0,-1 0,0 0,0 0,0 0,0 0,0 0,0l0 0 3 2 1 1z"/>
   <path class="fil11" d="M90 130c0,0 -2,2 -7,3 -3,0 -5,-2 -5,-2l1 -2 11 1z"/>
   <path class="fil5 str6" d="M86 127c-2,2 -3,3 -4,4 -1,2 -1,5 -3,12 -1,7 -2,12 -3,12 0,1 -2,1 -6,4 -3,2 -6,4 -7,6"/>
   <path class="fil5 str6" d="M86 131c0,0 -1,4 -5,4"/>
   <path class="fil5 str6" d="M63 162c0,1 1,2 2,3"/>
   <polygon class="fil8" points="85,105 88,108 90,103 86,101 "/>
   <path class="fil15" d="M90 105c0,0 -4,-2 -4,-4l4 2 0 2z"/>
   <path class="fil1" d="M88 108c1,0 2,1 2,2 0,2 0,4 0,8 0,3 1,12 1,12 0,0 -3,1 -7,1 -4,0 -5,-2 -5,-2 0,0 0,-13 1,-18 2,-5 5,-6 5,-6l3 3z"/>
   <path class="fil15" d="M92 97c0,1 1,2 2,3 0,0 -1,0 -1,0l-1 -3z"/>
   <path class="fil8" d="M86 101c0,0 1,0 1,1 0,0 3,2 4,2 1,0 2,0 2,-3 0,-3 -1,-6 -3,-7 -2,-1 -5,0 -6,2 -1,2 0,5 2,5z"/>
   <path class="fil12" d="M86 101l0 1c0,0 0,0 -1,-1 -1,-1 -3,-3 -3,-4 1,-1 2,-2 2,-2 0,0 1,-3 5,-5 4,-1 5,2 2,3 0,0 2,1 1,2 -1,1 -5,1 -5,1 0,0 2,1 2,1 -1,0 -3,0 -3,0l0 1c0,0 -1,0 -1,1 -1,0 0,2 1,2z"/>
   <path class="fil5 str3" d="M84 92c0,0 -1,2 1,3 0,0 -2,0 -2,-2"/>
   <path class="fil12" d="M91 98c0,0 0,0 -1,0 0,0 0,0 0,0 0,0 0,0 1,0 0,0 0,0 0,0z"/>
   <path class="fil12" d="M91 97l-2 1c0,0 0,-1 1,-1 0,0 1,0 1,0z"/>
   <path class="fil15" d="M85 99c0,0 1,0 1,0 0,0 0,0 0,0 -1,0 -1,0 -1,1 0,0 0,0 0,0 0,-1 0,-1 0,-1z"/>
   <path class="fil15" d="M85 99c0,0 1,0 1,0 -1,0 -1,0 -1,0 0,1 0,1 0,1 1,0 1,0 1,0 0,0 0,0 0,0 0,0 -1,0 -1,0 0,0 0,-1 0,-1z"/>
   <path class="fil2" d="M84 108c-1,0 -2,2 -1,5 0,2 1,5 1,5 0,0 4,-1 5,-3 0,0 -1,-4 -2,-5 -1,-1 -1,-3 -3,-2z"/>
   <path class="fil2" d="M88 122c1,1 2,2 2,2 0,-1 0,-2 0,-4l-3 -4 -2 0 0 2c0,0 1,3 3,4z"/>
   <path class="fil8" d="M85 108c-2,0 -3,3 -1,7 2,4 5,7 6,8 2,2 9,1 14,0 0,0 4,-2 4,-2 2,-2 3,-4 1,-4 -1,0 -4,2 -4,2 0,0 0,-1 -1,-2 0,0 0,0 0,1 0,0 0,2 -1,2 0,0 -9,1 -10,0 -2,-1 -3,-4 -5,-7 -1,-4 -2,-6 -3,-5z"/>
   <path class="fil1" d="M84 107c-1,1 -2,3 -1,6 1,2 2,5 2,5 0,0 3,-1 5,-3 0,0 -2,-4 -3,-5 0,-2 -1,-4 -3,-3z"/>
  </g>
 </g>
</svg>
