<?xml version="1.0" encoding="UTF-8"?>
<!DOCTYPE svg PUBLIC "-//W3C//DTD SVG 1.1//EN" "http://www.w3.org/Graphics/SVG/1.1/DTD/svg11.dtd">
<!-- Creator: CorelDRAW X8 -->
<svg xmlns="http://www.w3.org/2000/svg" xml:space="preserve" width="8.4666mm" height="8.4666mm" version="1.1" style="shape-rendering:geometricPrecision; text-rendering:geometricPrecision; image-rendering:optimizeQuality; fill-rule:evenodd; clip-rule:evenodd"
viewBox="0 0 847 847"
 xmlns:xlink="http://www.w3.org/1999/xlink">
 <defs>
  <style type="text/css">
   <![CDATA[
    .fil17 {fill:#FEFEFE}
    .fil1 {fill:#F7B100}
    .fil20 {fill:#CE292E}
    .fil18 {fill:#2E3D6E}
    .fil0 {fill:#005E89}
    .fil19 {fill:#529BDA}
    .fil2 {fill:#FEFEFE;fill-rule:nonzero}
    .fil22 {fill:#332C2B;fill-rule:nonzero}
    .fil9 {fill:black;fill-rule:nonzero}
    .fil16 {fill:#004261;fill-rule:nonzero}
    .fil7 {fill:#005E89;fill-rule:nonzero}
    .fil6 {fill:#0092CD;fill-rule:nonzero}
    .fil8 {fill:#00BBFF;fill-rule:nonzero}
    .fil4 {fill:aqua;fill-rule:nonzero}
    .fil10 {fill:#0282BE;fill-rule:nonzero}
    .fil11 {fill:#1880B7;fill-rule:nonzero}
    .fil13 {fill:#E66149;fill-rule:nonzero}
    .fil15 {fill:#EF5645;fill-rule:nonzero}
    .fil21 {fill:#F1F1F1;fill-rule:nonzero}
    .fil12 {fill:#F9D16F;fill-rule:nonzero}
    .fil14 {fill:#FFAD89;fill-rule:nonzero}
    .fil5 {fill:#FFD25A;fill-rule:nonzero}
    .fil3 {fill:#FFFFB4;fill-rule:nonzero}
   ]]>
  </style>
 </defs>
 <g id="Layer_x0020_1">
  <metadata id="CorelCorpID_0Corel-Layer"/>
  <circle class="fil0" cx="420" cy="429" r="402"/>
  <rect class="fil1" x="209" y="287" width="435" height="164" rx="23" ry="23"/>
  <path class="fil2" d="M252 296l0 2 -10 0c-3,0 -6,1 -9,2l0 -3c3,-1 6,-1 9,-1l10 0zm-26 6c-3,2 -4,5 -6,8l2 1 0 0c2,-3 3,-6 6,-8l-2 -1zm-7 15c0,3 0,7 0,10l2 0c0,-3 0,-7 0,-10l-2 0zm0 17l2 0 0 10 -2 0 0 -10zm0 17l2 0 0 10 -2 0 0 -10zm0 17l2 0 0 10 -2 0 0 -10zm0 17l2 0 0 9 -2 0 0 -9zm0 17l2 0 0 9 -2 0 0 -9zm0 17l2 0 0 2c0,2 0,5 1,7l-2 1c-1,-3 -1,-5 -1,-8l0 -2zm5 16c2,3 5,5 8,6l1 -2c-3,-1 -5,-3 -7,-6l-2 2zm15 8c4,0 7,0 10,0l0 -2c-3,0 -6,0 -9,0l-1 2zm17 0l0 -2 10 0 0 2 -10 0zm17 0l0 -2 10 0 0 2 -10 0zm17 0l0 -2 10 0 0 2 -10 0zm17 0l0 -2 10 0 0 2 -10 0zm17 0l0 -2 10 0 0 2 -10 0zm17 0l0 -2 10 0 0 2 -10 0zm17 0l0 -2 9 0 0 2 -9 0zm17 0l0 -2 9 0 0 2 -9 0zm17 0l0 -2 9 0 0 2 -9 0zm16 0l0 -2 10 0 0 2 -10 0zm17 0l0 -2 10 0 0 2 -10 0zm17 0l0 -2 10 0 0 2 -10 0zm17 0l0 -2 10 0 0 2 -10 0zm17 0l0 -2 10 0 0 2 -10 0zm17 0l0 -2 10 0 0 2 -10 0zm17 0l0 -2 9 0 0 2 -9 0zm17 0l0 -2 9 0 0 2 -9 0zm17 0l0 -2 9 0 0 2 -9 0zm17 0l0 -2 9 0 0 2 -9 0zm16 0l0 -2 10 0 0 2 -10 0zm17 0l0 -2 10 0 0 2 -10 0zm17 0c4,-1 7,-2 10,-4l-1 -2c-3,2 -6,3 -9,3l0 3zm15 -9c3,-3 4,-6 5,-9l-3 0c0,3 -2,5 -3,8l1 1zm5 -16l-2 0 0 -10 2 0 0 10zm0 -17l-2 0 0 -10 2 0 0 10zm0 -17l-2 0 0 -10 2 0 0 10zm0 -17l-2 0 0 -10 2 0 0 10zm0 -17l-2 0 0 -10 2 0 0 10zm0 -17l-2 0 0 -10 2 0 0 10zm0 -17l0 0c0,-4 -1,-7 -3,-10l-2 2c1,2 2,5 3,8l0 0 2 0zm-8 -15c-3,-2 -6,-4 -9,-5l-1 3c3,0 6,2 8,4l2 -2zm-17 -5l0 2 -9 0 0 -2 9 0zm-17 0l0 2 -9 0 0 -2 9 0zm-16 0l0 2 -10 0 0 -2 10 0zm-17 0l0 2 -10 0 0 -2 10 0zm-17 0l0 2 -10 0 0 -2 10 0zm-17 0l0 2 -10 0 0 -2 10 0zm-17 0l0 2 -10 0 0 -2 10 0zm-17 0l0 2 -10 0 0 -2 10 0zm-17 0l0 2 -9 0 0 -2 9 0zm-17 0l0 2 -9 0 0 -2 9 0zm-17 0l0 2 -9 0 0 -2 9 0zm-17 0l0 2 -9 0 0 -2 9 0zm-16 0l0 2 -10 0 0 -2 10 0zm-17 0l0 2 -10 0 0 -2 10 0zm-17 0l0 2 -10 0 0 -2 10 0zm-17 0l0 2 -10 0 0 -2 10 0zm-17 0l0 2 -10 0 0 -2 10 0zm-17 0l0 2 -10 0 0 -2 10 0zm-17 0l0 2 -9 0 0 -2 9 0zm-17 0l0 2 -9 0 0 -2 9 0zm-17 0l0 2 -9 0 0 -2 9 0z"/>
  <g id="_2654614718608">
   <g>
    <path class="fil3" d="M308 313c1,0 1,-1 2,0 4,-1 9,0 14,-1 0,1 0,2 0,2 -1,0 -1,0 -1,-1 -5,0 -10,0 -15,0z"/>
   </g>
   <g>
    <path class="fil4" d="M324 312c5,5 10,10 14,15 0,5 0,10 0,15 0,0 0,0 -1,1 0,-5 0,-10 0,-15 -4,-4 -9,-9 -13,-13l0 -1c0,0 0,-1 0,-2z"/>
   </g>
   <g>
    <path class="fil5" d="M295 327c4,-4 9,-9 13,-14 5,0 10,0 15,0 0,1 0,1 1,1l0 1c0,4 0,8 0,12 -5,0 -10,0 -15,0 0,0 0,0 0,0 -5,0 -10,0 -14,0z"/>
   </g>
   <g>
    <path class="fil6" d="M324 315c4,4 9,9 13,13 0,5 0,10 0,15 -4,4 -9,9 -13,13 0,-5 0,-10 0,-14 0,-5 0,-10 0,-15 0,-4 0,-8 0,-12z"/>
   </g>
   <path class="fil7" d="M309 327c0,0 0,0 0,0 0,0 0,1 0,1 0,0 0,0 -1,0 0,5 0,10 0,15 -4,4 -9,9 -13,13 0,-9 0,-17 0,-26 0,0 0,-1 0,-1 0,0 0,-1 0,-1 0,0 0,0 0,-1l0 0c4,0 9,0 14,0zm-14 32c0,-1 0,-1 0,-2 0,0 0,0 0,-1 5,0 9,0 14,0l0 0c0,1 0,1 0,1 0,0 0,0 -1,0 0,2 0,4 0,7 -4,4 -9,9 -13,13 0,-6 0,-12 0,-18z"/>
   <g>
    <path class="fil8" d="M308 328c1,0 1,0 1,0 0,5 0,9 0,14 0,0 0,0 -1,1l0 0c0,-5 0,-10 0,-15z"/>
    <path class="fil8" d="M308 357c1,0 1,0 1,0 0,2 0,4 0,6 0,0 0,0 -1,1 0,-3 0,-5 0,-7z"/>
   </g>
   <g>
    <g>
     <path class="fil9" d="M417 336c3,0 6,0 10,0 0,5 0,11 0,16 2,-3 5,-4 8,-4 3,0 7,2 10,4 4,5 5,13 1,19 -2,3 -5,5 -9,6 -2,0 -4,0 -7,-1 -1,-1 -2,-2 -3,-3 0,1 0,2 0,3 -4,0 -7,0 -10,0 0,-13 0,-26 0,-40zm14 21l0 0c-3,0 -5,3 -5,6 1,4 4,6 8,5 3,0 5,-3 4,-7 0,-3 -4,-6 -7,-4z"/>
    </g>
    <g>
     <path class="fil9" d="M334 352c2,-2 6,-4 9,-4 4,0 8,0 12,3 2,2 4,5 4,8 1,2 0,4 0,5 -6,0 -13,0 -19,0 0,2 0,4 2,5 1,1 4,2 5,1 2,-1 2,-1 3,-2 3,0 6,0 9,0 -1,2 -2,5 -4,6 -4,3 -8,3 -12,3 -3,0 -7,-2 -10,-5 -2,-2 -3,-6 -3,-10 0,-3 1,-7 4,-10zm9 2l0 0c-2,1 -3,3 -3,5 3,0 7,0 11,0 -1,-2 -1,-3 -3,-4 -1,-1 -3,-1 -5,-1z"/>
    </g>
    <g>
     <path class="fil9" d="M456 353c3,-3 7,-5 10,-5 3,0 7,1 9,4 0,-1 0,-2 0,-3 3,0 6,0 9,0 0,9 0,18 0,27 -3,0 -6,0 -9,0 0,-1 0,-2 0,-3 -2,2 -5,4 -8,4 -1,0 -2,0 -3,0 -3,-1 -6,-3 -8,-6 -4,-5 -4,-13 0,-18zm12 3l0 0c-2,1 -4,3 -5,5 0,2 0,4 1,5 1,2 4,3 6,2 3,0 5,-3 5,-6 0,-2 -1,-4 -3,-5 -2,-1 -3,-1 -4,-1z"/>
    </g>
    <path class="fil9" d="M381 349c3,-1 6,0 9,2 1,1 2,2 2,3 1,-2 3,-4 5,-5 3,-1 6,-1 9,1 3,1 5,5 5,8 0,6 0,12 0,18 -4,0 -7,0 -10,0 0,-4 0,-8 0,-11 0,-2 0,-4 0,-6 -1,-1 -1,-2 -2,-3 -1,0 -3,0 -4,0 -2,2 -3,4 -2,7 0,4 0,8 0,13 -4,0 -7,0 -10,0 0,-5 0,-9 0,-14 0,-2 0,-3 -1,-5 -1,-1 -2,-1 -3,-1 -1,0 -2,0 -3,1 -1,1 -1,3 -2,5 0,5 0,9 0,14 -3,0 -6,0 -9,0 0,-9 0,-18 0,-27 3,0 6,0 9,0 0,1 0,2 0,3 2,-2 5,-3 7,-3z"/>
   </g>
   <g>
    <path class="fil10" d="M431 337c0,-1 1,-1 2,-1 18,0 37,0 55,0 0,3 0,6 0,9 -19,0 -37,0 -56,0 -1,0 -2,-1 -2,-2 0,-1 0,-3 0,-4 0,-1 0,-2 1,-2z"/>
   </g>
   <g>
    <path class="fil11" d="M488 336c9,0 18,0 27,0 0,3 0,6 0,9 -3,0 -5,0 -8,0 0,10 0,21 0,31 -4,0 -7,0 -11,0 0,-10 0,-21 0,-31 -2,0 -5,0 -8,0 0,-3 0,-6 0,-9z"/>
   </g>
   <g>
    <path class="fil12" d="M515 336c7,0 13,0 20,0 0,3 0,6 0,9 -2,0 -3,0 -5,0 0,7 0,15 0,22 2,0 3,0 5,0 0,3 0,6 0,9 -7,0 -13,0 -19,0 0,-3 0,-6 0,-9 1,0 2,0 4,0 0,-7 0,-15 0,-22 -2,0 -3,0 -5,0 0,-3 0,-6 0,-9z"/>
   </g>
   <g>
    <path class="fil13" d="M535 336c4,0 9,0 14,0 0,6 0,11 0,17 4,-6 8,-11 12,-17 4,0 9,0 13,0 -5,6 -10,12 -15,19 0,0 -1,0 0,0 5,7 11,14 16,21 -4,0 -8,0 -13,0 -4,-6 -9,-11 -13,-17 0,6 0,11 0,17 -4,0 -7,0 -11,0 0,-10 0,-21 0,-31 -1,0 -2,0 -3,0 0,-3 0,-6 0,-9z"/>
   </g>
   <g>
    <path class="fil14" d="M308 343c1,-1 1,-1 1,-1 5,0 9,0 14,0 0,0 0,0 0,1 -5,0 -10,0 -15,0z"/>
   </g>
   <g>
    <path class="fil15" d="M323 342c0,0 0,0 1,0 0,4 0,9 0,14 -5,0 -10,0 -15,0 -5,0 -9,0 -14,0l0 0c4,-4 9,-9 13,-13l0 0c5,0 10,0 15,0 0,-1 0,-1 0,-1z"/>
   </g>
   <g>
    <path class="fil16" d="M401 390c1,0 2,-1 2,0 0,0 0,1 0,1 0,1 -1,1 -2,0 0,0 0,-1 0,-1z"/>
    <path class="fil16" d="M494 390c1,0 2,0 2,0 1,0 1,1 0,1 0,1 -1,1 -2,1 0,-1 0,-2 0,-2z"/>
    <g>
     <path class="fil16" d="M370 390c0,0 1,0 2,0 0,1 0,2 0,3 1,-1 4,-1 5,1 1,2 1,3 0,5 -1,2 -4,2 -5,1 0,0 0,1 0,1 -1,0 -2,0 -2,-1 0,-3 0,-6 0,-10zm3 4l0 0c0,1 -1,1 -1,2 0,1 0,2 0,2 1,1 2,1 2,1 1,-1 1,-1 1,-2 0,-1 0,-1 0,-2 -1,-1 -1,-1 -2,-1z"/>
    </g>
    <path class="fil16" d="M388 390c1,0 2,0 2,0 0,3 0,7 0,10 0,0 0,0 0,1 -1,0 -1,0 -2,0 0,-1 0,-1 0,-2 0,-2 0,-5 0,-8 0,0 0,-1 0,-1z"/>
    <g>
     <path class="fil16" d="M468 390c1,0 1,0 2,0 0,1 0,2 0,3 2,-1 4,-1 5,1 1,2 1,3 0,5 -1,2 -3,2 -5,1 0,0 0,1 0,1 -1,0 -2,0 -2,-1 0,-2 0,-5 0,-8 0,-1 0,-1 0,-2zm3 4l0 0c0,1 -1,1 -1,2 0,1 0,2 1,2 0,1 1,1 2,1 0,-1 0,-1 0,-2 0,-1 0,-1 0,-2 0,-1 -1,-1 -2,-1z"/>
    </g>
    <g>
     <path class="fil16" d="M337 390c2,0 4,0 5,0 1,0 3,1 4,2 0,1 0,3 -1,4 -2,1 -4,1 -5,1 0,1 0,2 0,4 -1,0 -2,0 -2,0 -1,-1 -1,-1 -1,-2 0,-3 0,-6 0,-9zm3 2l0 0c0,1 0,2 0,3 1,0 2,0 2,0 2,0 2,-3 0,-3 0,0 -1,0 -2,0z"/>
    </g>
    <g>
     <path class="fil16" d="M442 390c1,0 3,0 4,0 1,0 3,0 4,1 1,1 1,3 0,4 0,0 1,1 1,1 0,2 0,3 -1,4 -2,1 -3,1 -4,1 -1,0 -3,0 -4,0 0,-2 0,-3 0,-4 0,-2 0,-5 0,-7zm3 2l0 0c0,1 0,1 0,2 1,0 2,0 3,0 1,0 0,-2 -1,-2 0,0 -1,0 -2,0zm0 4l0 0c0,1 0,2 0,3 1,0 2,0 3,0 1,-1 1,-2 0,-3 -1,0 -2,0 -3,0z"/>
    </g>
    <path class="fil16" d="M509 390c3,0 6,0 9,0 0,1 0,1 0,2 -1,0 -2,0 -3,0 0,3 0,5 0,7 0,1 0,1 0,2 -1,0 -2,0 -3,0 0,-1 0,-1 0,-2 0,-2 0,-4 0,-7 -1,0 -2,0 -3,0 0,-1 0,-1 0,-2z"/>
    <path class="fil16" d="M519 390c1,0 2,0 3,0 0,0 0,1 0,1 0,3 0,6 0,10 -1,0 -2,0 -3,0 0,-2 0,-4 0,-6 0,-2 0,-3 0,-5z"/>
    <path class="fil16" d="M524 390c1,0 1,0 2,0 0,1 0,3 0,4 1,-1 2,-3 4,-4 0,0 1,0 2,0 -1,2 -2,3 -4,5 2,2 3,3 4,5 0,0 0,0 0,1 -1,0 -1,0 -2,0 -1,-2 -2,-3 -4,-5 0,2 0,3 0,5 0,0 -1,0 -2,0 0,-2 0,-3 0,-4 0,-2 0,-5 0,-7z"/>
    <g>
     <path class="fil16" d="M347 394c1,-1 4,-2 6,-1 1,1 2,3 1,4 -1,0 -3,0 -5,0 0,1 1,2 1,2 1,0 2,0 2,-1 1,0 2,0 2,0 0,2 -1,2 -2,3 -2,0 -4,0 -5,-2 0,-1 0,-3 0,-5zm3 1l0 0c-1,0 -1,0 -1,1 1,0 2,0 3,0 0,-1 0,-1 0,-1 -1,-1 -2,-1 -2,0z"/>
    </g>
    <path class="fil16" d="M358 394c1,-2 4,-2 5,0 1,-1 3,-2 4,-1 1,1 1,2 1,3 0,2 0,3 0,5 -1,0 -2,0 -2,0 0,-2 0,-4 0,-6 0,0 -1,-1 -2,-1 0,0 -1,1 -1,1 0,2 0,4 0,6 -1,0 -1,0 -2,0 0,-2 0,-4 0,-5 0,-1 -1,-2 -1,-2 -1,0 -2,1 -2,2 0,1 0,3 0,5 0,0 -1,0 -2,0 0,-1 0,-1 0,-1 0,-2 0,-4 0,-6 0,-1 0,-1 0,-1 1,0 1,0 2,0 0,0 0,0 0,1z"/>
    <g>
     <path class="fil16" d="M380 393c2,-1 4,-1 6,1 0,1 1,2 0,3l0 0c-1,0 -3,0 -5,0 0,1 0,2 1,2 1,0 2,0 2,-1 1,0 2,0 2,0 0,2 -2,3 -4,3 -1,0 -3,-1 -3,-3 0,-1 0,-4 1,-5zm2 2l0 0c-1,0 -1,0 -1,1 1,0 2,0 3,0 0,-1 0,-1 0,-1 -1,-1 -2,-1 -2,0z"/>
    </g>
    <g>
     <path class="fil16" d="M394 393c1,0 2,0 3,0 1,0 2,1 2,2 0,1 0,2 0,3 0,1 0,2 0,3 -1,0 -1,0 -2,0 0,-1 0,-1 0,-1 -1,1 -4,1 -5,0 -1,-1 -1,-2 0,-3 2,-1 3,-1 5,-1 0,-1 0,-2 -1,-2 -1,0 -2,0 -2,1 -1,0 -1,0 -2,0 0,-1 1,-2 2,-2zm0 5l0 0c0,0 0,0 0,1 1,0 2,0 2,-1 1,0 1,-1 1,-1 -1,0 -2,0 -3,1z"/>
    </g>
    <g>
     <path class="fil16" d="M405 395c0,-1 1,-2 3,-2 1,0 2,0 3,1 1,0 1,2 1,3 0,1 0,2 0,4 -1,0 -1,0 -2,0 0,0 0,-1 0,-1 -1,1 -4,1 -5,0 -1,-1 0,-2 0,-3 2,-1 3,-1 5,-1 0,-1 0,-2 -1,-2 -1,0 -1,0 -2,1 0,0 -1,0 -2,0zm2 3l0 0c0,0 0,0 0,1 1,0 2,0 3,-1 0,0 0,-1 0,-1 -1,0 -2,0 -3,1z"/>
    </g>
    <g>
     <path class="fil16" d="M421 394c1,-2 3,-2 5,-1 1,0 1,1 1,2 0,2 0,4 0,5 0,1 -1,1 -1,1 -1,0 -1,-1 -1,-1 -1,1 -3,1 -5,0 0,-1 0,-3 1,-3 1,-1 3,-1 4,-1 0,-1 0,-2 -1,-2 0,0 -1,0 -2,1 0,0 -1,0 -2,0 1,-1 1,-1 1,-1zm1 4l0 0c0,1 1,1 2,1 1,0 1,-1 1,-2 -1,0 -2,0 -3,1z"/>
    </g>
    <path class="fil16" d="M432 394c1,-2 3,-2 4,-1 1,1 1,2 1,4 0,1 0,2 0,4 -1,0 -2,0 -2,0 -1,-2 0,-4 -1,-6 0,-1 -2,-1 -2,0 -1,2 0,4 0,5 -1,1 -2,1 -3,1 0,-1 0,-1 0,-2 0,-2 0,-4 0,-6 1,0 2,0 2,0 0,0 0,0 1,1z"/>
    <g>
     <path class="fil16" d="M454 393c1,-1 3,-1 4,0 1,1 2,3 2,4 0,0 -1,0 -1,0 -2,0 -3,0 -4,0 0,1 0,2 1,2 0,0 1,0 2,-1 0,0 1,0 2,0 -1,2 -3,3 -5,3 -2,-1 -3,-2 -3,-4 0,-1 0,-3 2,-4zm1 2l0 0c0,0 0,0 0,1 1,0 2,0 3,0 -1,-1 -1,-1 -1,-1 0,-1 -1,-1 -2,0z"/>
    </g>
    <g>
     <path class="fil16" d="M478 394c1,-2 3,-2 4,-1 1,0 2,1 2,2 0,2 0,4 0,5 0,1 -1,1 -2,1 0,0 0,-1 0,-1 -1,1 -4,1 -5,0 0,-1 0,-3 1,-3 1,-1 2,-1 4,-1 0,-1 0,-2 -1,-2 -1,0 -1,0 -2,1 0,0 -1,0 -2,0 0,-1 0,-1 1,-1zm1 4l0 0c0,1 1,1 2,1 1,0 1,-1 1,-2 -1,0 -2,0 -3,1z"/>
    </g>
    <path class="fil16" d="M486 394c2,-2 3,-2 5,-1 1,0 1,1 1,2 0,0 -1,0 -2,-1 -1,0 -2,0 -2,1 0,0 1,1 1,1 1,0 3,0 3,1 1,1 1,2 0,3 -1,1 -3,1 -4,1 -1,-1 -2,-1 -2,-2 0,-1 1,-1 1,-1 1,1 2,1 3,1 0,0 1,-1 0,-1 -1,-1 -3,-1 -4,-1 0,-1 0,-3 0,-3z"/>
    <path class="fil16" d="M500 393c2,-1 3,0 4,1 0,0 1,0 1,1 -1,0 -2,0 -2,0 -1,-1 -1,-1 -2,-1 -1,0 -1,1 0,1 1,1 2,1 3,2 1,0 1,2 0,3 -1,1 -2,1 -3,1 -2,0 -3,-1 -3,-2 0,-1 1,-1 1,-1 1,0 1,1 2,1 1,0 2,0 2,-1 0,0 -1,0 -2,-1 -1,0 -3,0 -3,-2 0,-1 1,-2 2,-2z"/>
    <path class="fil16" d="M401 401c0,-3 0,-5 0,-8 1,0 1,0 2,0 0,0 0,0 0,1 0,2 0,5 0,7 0,1 -1,2 -2,2 -1,0 -1,1 -2,0 0,0 0,-1 0,-1 1,0 2,0 2,-1z"/>
    <path class="fil16" d="M414 393c0,0 0,0 0,0 1,0 1,0 2,0 0,0 0,0 0,1 1,-1 2,-1 3,-1 0,0 0,1 0,2 0,0 -1,0 -2,0 0,0 -1,0 -1,1 0,1 0,3 0,4 0,1 -1,1 -2,1 0,0 0,-1 0,-1 0,-2 0,-4 0,-7z"/>
    <path class="fil16" d="M461 393c0,0 0,0 1,0 0,0 1,0 1,0 1,0 1,0 1,1 0,-1 2,-1 3,-1 0,0 0,1 0,2 -1,0 -2,0 -2,0 -1,0 -1,1 -1,1 0,1 0,3 0,4 0,0 0,0 -1,1 0,0 -1,0 -2,0 0,-1 0,-1 0,-2 0,-2 0,-4 0,-6z"/>
    <path class="fil16" d="M494 393c1,0 2,0 2,0 1,1 0,2 0,3 0,1 0,3 0,4 0,1 -1,1 -2,1 0,0 0,-1 0,-1 0,-1 0,-3 0,-4 0,-1 0,-2 0,-3z"/>
   </g>
  </g>
  <path class="fil17" d="M427 407c17,0 32,7 43,18 11,11 18,26 18,43 0,5 -1,10 -2,15l2 -1c13,-6 26,-13 39,-17 10,-4 20,-3 27,3 4,2 7,6 10,10 2,4 3,9 3,14 0,1 0,3 0,4 6,0 13,1 19,4l0 0c13,5 22,15 27,26 5,12 6,26 1,38l0 0c-1,2 -2,3 -2,5 9,-1 18,-1 26,-1 10,0 18,5 22,12 3,3 4,7 5,11 0,4 -1,9 -2,13 -3,7 -10,14 -21,16 -3,1 -7,2 -12,3 -12,2 -25,4 -39,14l-1 1c-10,7 -15,10 -20,27 5,3 10,6 14,9 9,6 17,12 24,17l0 0c6,5 8,13 5,20 -4,8 -13,11 -21,8 -53,-23 -111,-34 -167,-34 -58,0 -114,11 -161,34l0 0c-7,3 -15,1 -20,-5 -5,-7 -4,-17 3,-22 9,-7 17,-14 25,-19 5,-4 10,-7 15,-10 -7,-22 -11,-25 -22,-32l-1 -2c-14,-9 -27,-11 -40,-14 -4,0 -8,-1 -12,-2 -9,-2 -16,-8 -19,-14 0,-1 -1,-2 -1,-2 -2,-4 -2,-9 -2,-13 1,-4 2,-8 5,-12 4,-6 12,-11 22,-11 8,0 17,0 26,1 -1,-2 -1,-3 -2,-5l0 0c-5,-13 -5,-26 0,-38 5,-12 15,-21 27,-26l0 0c7,-3 14,-4 21,-4 0,0 0,-1 0,-1 1,-5 3,-9 5,-13 3,-4 6,-7 10,-9 7,-5 16,-7 25,-2 10,4 18,8 27,13 5,2 9,4 13,6 -1,-5 -2,-10 -2,-15 0,-17 7,-32 18,-43 11,-11 26,-18 42,-18z"/>
  <g id="_2654614716112">
   <g>
    <circle class="fil18" cx="427" cy="468" r="44"/>
    <path class="fil18" d="M323 478c34,16 79,43 105,43 25,0 69,-28 104,-42 15,-5 28,14 11,25 -18,14 -41,24 -59,52 -17,25 -21,29 -13,91l-86 1c5,-60 4,-61 -10,-88 -17,-32 -44,-39 -67,-59 -9,-9 3,-28 15,-23z"/>
   </g>
   <g>
    <ellipse class="fil19" transform="matrix(0.0338626 0.0137186 -0.0131273 0.0324029 567.898 545.576)" rx="914" ry="955"/>
    <path class="fil19" d="M491 523c20,21 43,53 62,60 18,7 57,1 85,1 12,0 16,17 1,21 -17,4 -36,4 -57,18 -19,13 -23,15 -35,61l-60 -24c21,-40 20,-41 18,-64 -3,-27 -20,-40 -30,-61 -5,-9 10,-19 16,-12z"/>
   </g>
   <g>
    <ellipse class="fil20" transform="matrix(-0.0338626 0.0137186 0.0131273 0.0324029 286.93 538.347)" rx="914" ry="955"/>
    <path class="fil20" d="M364 516c-20,21 -44,52 -62,60 -18,7 -57,0 -85,1 -12,0 -16,17 -1,20 17,4 36,5 57,19 18,13 23,15 34,60l61 -23c-21,-41 -20,-42 -18,-64 3,-28 20,-41 30,-61 4,-9 -10,-19 -16,-12z"/>
   </g>
   <path class="fil18" d="M257 704c98,-46 230,-48 341,0 -41,-31 -85,-60 -172,-60 -87,1 -125,26 -169,60z"/>
  </g>
  <path class="fil21" d="M407 103c21,-3 41,-2 61,3 34,8 65,27 90,50 -6,6 -12,13 -18,20 -26,-24 -58,-40 -92,-44 -23,-3 -46,0 -68,7 -22,9 -43,21 -61,36 -7,-6 -14,-12 -20,-19 30,-27 68,-47 108,-53z"/>
  <path class="fil22" d="M427 406c-1,0 -2,2 -1,3 1,0 1,0 1,0 3,0 5,0 7,0 1,0 2,-2 1,-3 -1,0 -1,0 -1,0 -2,0 -4,0 -7,0zm-8 4c1,-1 1,-3 0,-3 -1,-1 -1,-1 -1,-1 -2,1 -4,1 -6,2 -2,0 -2,3 0,3 0,0 0,0 0,0 2,-1 4,-1 7,-1zm-15 4c0,0 1,-1 1,-1 -1,-2 -2,-2 -3,-2 -2,1 -4,2 -6,3 0,0 0,1 0,2 0,1 1,2 2,1 2,-1 4,-2 6,-3zm-14 8c2,-1 0,-3 -1,-2 0,0 -1,0 -1,0 -1,1 -3,3 -5,4 0,1 0,1 0,1 0,2 2,3 3,2 1,-2 3,-3 4,-5zm-10 12c0,-1 0,-1 0,-1 0,-2 -2,-2 -3,-1 -1,2 -2,4 -3,5 -1,1 -1,1 -1,2 1,1 3,1 3,0 1,-2 2,-4 4,-5zm-8 14c1,-1 1,-1 0,-2 -1,-1 -2,-1 -3,0 0,3 -1,5 -1,7 -1,1 1,2 2,1 0,0 1,0 1,0 0,-2 1,-4 1,-6zm-3 15c0,-2 -1,-2 -3,-2 0,1 0,1 0,2 0,2 0,4 0,6 0,2 2,2 3,1 0,-1 0,-1 0,-1 0,-2 0,-4 0,-6zm1 15c0,-1 -2,-1 -3,0 0,0 0,0 0,1 0,1 0,2 0,2 0,1 -1,2 0,3 0,0 0,0 0,0l2 1c1,1 2,-1 2,-2 0,-2 -1,-3 -1,-5zm-11 2c0,0 1,0 2,0 0,-1 0,-3 -1,-3 -1,-1 -2,-1 -3,-2 -1,0 -2,-1 -3,-1 -1,-1 -3,1 -2,2 1,1 1,1 1,1l2 1c1,1 3,1 4,2zm-15 -7c2,0 3,-1 3,-2 -1,-1 -1,-1 -1,-1 -2,-1 -4,-2 -6,-3l0 0c-2,-1 -3,1 -2,2 0,1 0,1 1,1l0 0c2,1 4,2 5,3zm-14 -7c1,0 3,-1 2,-3 0,0 0,0 -1,0l-1 -1 -1 2 1 -2c-2,-1 -3,-1 -5,-2 -2,0 -3,2 -1,3 0,0 0,0 0,0 2,1 4,2 6,3zm1 -3l0 0 0 0zm-16 0c2,0 2,-3 0,-3 0,0 0,0 0,0l0 3zm-13 6c1,-1 0,-3 -2,-3 0,0 0,1 0,1 -2,1 -4,3 -5,4 -1,1 -1,2 0,3 1,0 2,0 2,0 2,-2 3,-4 5,-5zm-9 12c0,-1 -2,-3 -3,-1 0,0 0,0 0,0 -1,2 -2,4 -2,7 0,0 0,1 1,1 1,1 2,0 2,-1 0,-2 1,-4 2,-6zm-11 10c1,0 2,-3 0,-3 0,0 0,0 -1,0 -2,0 -4,0 -6,1 -2,0 -2,2 -1,3 1,0 1,0 2,0 2,-1 4,-1 6,-1zm-15 4c1,-1 1,-3 -1,-3 0,0 0,0 -1,0 -2,1 -4,2 -5,3 -2,1 -1,4 1,3 0,0 0,0 0,0 2,-1 4,-2 6,-3zm-13 9c0,-1 1,-2 0,-2 0,-1 -2,-1 -2,-1 -2,2 -3,4 -5,5 -1,1 0,3 2,3 0,0 0,0 1,-1 1,-1 2,-3 4,-4zm-9 12c0,-1 -2,-3 -3,-2 0,0 0,0 0,1 -1,2 -2,4 -3,6 -1,1 2,3 3,1 0,0 0,0 0,0 1,-2 2,-4 3,-6zm-5 15c0,-2 -2,-3 -3,-1 0,0 0,0 0,0 -1,2 -1,5 -1,7 0,2 2,2 3,1 0,-1 0,-1 0,-1 0,-2 0,-4 1,-6zm0 15c-1,-1 -3,-2 -3,0 0,0 0,1 0,1 0,2 0,4 1,6 1,2 2,2 3,1 0,-1 0,-1 0,-2 0,-2 -1,-4 -1,-6zm3 17c1,0 1,0 2,-1 0,-1 -1,-2 -2,-2 0,0 -1,0 -1,0 -2,0 -4,0 -5,0 -1,-1 -2,0 -2,1 0,1 0,2 2,2 1,0 3,0 5,0 0,0 1,0 1,0zm-16 -1c1,0 1,0 2,-1 0,-1 -1,-2 -2,-2 -2,0 -4,0 -6,0 -1,0 -2,0 -2,1 0,1 0,2 2,2 2,0 4,0 6,0zm-16 1c2,-1 2,-3 0,-3 0,0 0,0 0,0 -3,0 -5,1 -7,2 0,0 -1,1 -1,1 0,1 1,2 3,2l0 0c1,-1 3,-2 5,-2zm-13 7c1,0 1,-1 1,-1 0,-2 -2,-2 -3,-1 -2,2 -3,4 -4,5 0,1 0,2 0,2 1,1 2,1 3,0 1,-2 2,-3 3,-5zm-6 14c0,-2 -2,-3 -3,-1 0,0 0,0 0,0 0,0 0,1 0,1 -1,2 -1,4 0,6 0,1 0,1 1,1 1,1 2,0 2,-1 0,-2 0,-4 0,-6 0,0 0,0 0,0zm3 14c-1,0 -1,-1 -2,-1 -1,0 -2,1 -1,3 1,2 2,4 4,5 1,2 3,0 2,-1 0,-1 0,-1 0,-1 -1,-1 -2,-3 -3,-5zm10 11c-1,-1 -3,1 -2,2 0,0 1,0 1,0 2,2 4,2 6,3 2,0 3,-2 1,-3 0,0 0,0 0,0 -2,-1 -4,-1 -6,-2zm15 4c-2,0 -3,2 -1,3 0,0 0,0 1,0 0,0 1,0 2,1 1,0 2,0 2,0l0 -2 0 2 2 0c2,1 3,-2 1,-3 0,0 0,0 -1,0l-1 0c-2,0 -3,-1 -5,-1l0 0zm16 3c-2,0 -3,2 -1,3 0,0 0,0 0,0 2,1 4,1 6,2 2,0 3,-2 2,-3 0,0 0,0 -1,0 -2,-1 -4,-1 -6,-2zm16 5c-2,-1 -3,1 -2,3 0,0 0,0 0,0 2,1 4,2 6,3 2,1 3,-1 2,-3 0,0 0,0 -1,0 -1,-1 -3,-2 -5,-3zm14 8c-2,-1 -3,1 -2,2 0,0 0,1 0,1 2,1 4,2 5,3 2,1 4,0 2,-2 0,0 0,0 0,0 -2,-1 -3,-3 -5,-4l-1 2 1 -2 0 0zm12 11c-1,-2 -3,0 -2,1 0,0 0,1 0,1 1,1 2,3 3,5 1,1 3,1 3,-1 0,0 0,0 0,-1 -1,-2 -2,-4 -4,-5zm8 14c-1,-1 -3,-1 -3,1 0,0 0,0 0,1 1,2 1,4 2,6 0,1 3,1 3,-1 0,0 0,0 0,0 -1,-2 -1,-5 -2,-7zm-5 14c2,-1 1,-3 -1,-3 0,1 0,1 0,1 -2,1 -4,2 -6,3 -1,1 0,3 1,3 1,0 1,0 1,0 1,-1 2,-1 3,-2l2 -2zm-13 9c1,0 1,-1 1,-1 0,-1 -2,-2 -3,-1 -1,1 -3,2 -5,4 0,0 0,0 0,0 -1,2 1,3 2,2 2,-1 3,-2 5,-4zm-13 10c1,0 1,-1 1,-1 0,-1 -1,-2 -3,-2 -1,2 -3,3 -5,4 0,1 -1,2 0,2 0,1 1,2 2,1 2,-1 4,-3 5,-4zm-11 10c1,-1 -1,-3 -3,-2 0,1 0,1 0,1 -1,2 -2,4 -2,7 0,1 2,2 3,0 0,0 0,0 0,0 1,-2 1,-4 2,-6zm0 14c-1,-1 -3,-1 -3,1 0,0 0,1 0,1 1,2 3,4 5,5 1,1 3,0 2,-2 0,0 0,0 0,0 -2,-2 -3,-3 -4,-5zm12 8c-2,-1 -3,2 -1,3 0,0 0,0 1,0 2,0 4,0 7,-1 1,-1 1,-3 0,-3 -1,0 -1,0 -1,0 -2,0 -4,1 -6,1zm14 -5c-1,1 -1,3 1,3 0,0 0,0 1,0 1,-1 3,-2 5,-3 1,0 1,0 1,0 1,-2 0,-3 -2,-3 -2,1 -4,2 -6,3zm15 -6c-2,0 -1,3 1,3 0,0 0,0 0,0 2,-1 4,-2 6,-2 2,-1 2,-4 0,-4 0,0 -1,0 -1,0 -2,1 -4,2 -6,3zm15 -6c-1,1 -1,3 1,3 0,0 0,0 0,0 2,0 4,-1 7,-2 1,0 1,-3 -1,-3 0,0 0,0 0,0 -2,1 -5,2 -7,2zm16 -4c-2,0 -2,3 0,3 0,0 1,0 1,0 2,-1 4,-1 6,-2 2,0 2,-3 0,-3 0,0 -1,0 -1,0 -2,1 -4,1 -6,2zm16 -4c-2,0 -2,2 0,3 0,0 0,0 0,0 2,-1 4,-1 7,-2 0,0 1,0 1,-1 0,-1 -1,-2 -2,-2 -2,1 -4,1 -6,2zm15 -4c0,0 -1,1 -1,2 0,1 1,2 2,1 2,0 4,0 6,-1 2,0 2,-3 0,-3 0,0 0,0 0,0 -2,1 -5,1 -7,1zm16 -2c-2,0 -2,3 0,3 0,0 1,0 1,0 2,0 4,-1 6,-1 2,0 2,-3 0,-3 0,0 0,0 0,0 -2,0 -5,0 -7,1zm16 -2c-1,0 -2,2 0,3 0,0 0,0 1,0 2,0 4,-1 6,-1 1,0 1,0 1,-1 1,-1 0,-2 -1,-2 -2,0 -5,0 -7,1zm16 -2c0,0 -1,1 -1,1 -1,1 0,3 2,2 2,0 4,0 6,0 1,0 1,-1 2,-1 0,-1 -1,-2 -2,-2 -2,0 -4,0 -7,0zm17 -1c-2,0 -3,3 -1,4 0,0 0,0 1,0 2,0 4,0 6,-1 2,0 2,-2 0,-3 0,0 0,0 0,0 -2,0 -4,0 -6,0zm16 0c-1,0 -2,1 -2,1 0,1 0,2 2,2 2,0 4,0 6,1 0,0 1,-1 1,-1 1,-1 1,-3 -1,-3 -2,0 -4,0 -6,0zm16 1c-2,0 -3,2 -1,3 0,0 0,0 1,0 2,0 4,0 6,0 2,0 2,-2 1,-3 0,0 -1,0 -1,0 -2,0 -4,0 -6,0zm16 1c-1,0 -1,0 -1,0 -1,1 -1,3 1,3 2,0 4,0 6,0 2,1 2,-2 1,-3 0,0 0,0 -1,0 -2,0 -4,0 -6,0zm16 1c0,0 -1,0 -1,0 -1,1 -1,3 1,3 2,1 4,1 6,1 2,0 2,-2 1,-3 0,0 0,0 -1,0 -2,0 -4,0 -6,-1zm16 2c-2,0 -3,2 -1,3 0,1 0,1 0,1 3,0 5,0 7,1 2,0 2,-3 1,-3 0,0 -1,0 -1,0 -2,-1 -4,-1 -6,-2zm16 3c-2,0 -3,2 -1,3 0,0 0,0 0,0 2,1 4,1 7,2 0,0 1,0 1,-1 1,-1 0,-2 -1,-2 -2,-1 -4,-1 -6,-2zm16 4c-2,-1 -3,1 -2,2 0,1 1,1 1,1 2,0 4,1 6,1 2,1 3,-1 2,-3 -1,0 -1,0 -1,0 -2,0 -4,-1 -6,-1zm15 4c0,-1 -1,0 -1,0 -1,1 -1,2 0,3 3,0 5,1 7,1 0,1 1,0 2,0 0,-1 -1,-2 -1,-3 -3,0 -5,-1 -7,-1zm16 4c-2,0 -3,2 -2,3 0,0 1,0 1,0 2,1 4,2 6,2 1,1 3,-1 2,-2 -1,0 -1,-1 -1,-1 -2,0 -4,-1 -6,-2zm15 5c-2,0 -3,2 -2,3 1,0 1,0 1,0 2,1 4,2 6,3 2,0 3,-2 2,-3 -1,0 -1,0 -1,0 -2,-1 -4,-2 -6,-3zm15 6c-2,0 -3,2 -2,3 1,0 1,0 1,0 2,1 4,2 6,3 1,0 3,-2 2,-3 -1,0 -1,0 -1,0 -2,-1 -4,-2 -6,-3zm15 5c-2,0 -2,2 -1,3 0,0 1,0 1,0l0 -3zm11 -8c-1,1 1,3 3,2 0,0 0,-1 0,-1 0,0 0,-1 1,-1 0,-2 1,-4 1,-6 0,0 0,-1 -1,-1 -1,-1 -2,0 -2,1 0,2 -1,3 -1,5 -1,0 -1,0 -1,1zm0 0l0 0 0 0zm0 -14c0,0 1,1 1,1 1,0 2,-2 2,-3 -2,-2 -3,-3 -5,-5l0 0c0,0 0,0 0,0l0 0c-2,-1 -3,1 -2,2 0,0 0,0 0,0 0,1 0,1 0,1 2,1 3,2 4,4zm-12 -10c1,0 2,0 2,0 1,-1 1,-2 0,-3l0 0c-2,-1 -3,-2 -5,-4 0,0 -1,0 -1,0 -2,0 -2,2 -1,3 2,1 3,3 5,4l0 0zm-13 -9c2,1 4,-1 2,-3 0,0 0,0 0,0 -2,-1 -4,-3 -5,-4 -1,0 -2,0 -2,0 -1,1 -1,2 0,3l2 2 1 -2 -1 2c1,0 2,1 3,2zm-13 -9c1,1 3,-1 2,-3 0,0 0,0 0,0 -1,-1 -3,-1 -4,-2l1 0c0,-1 0,-2 -1,-2 -1,-1 -2,0 -2,1 -1,0 -1,1 -1,1 0,1 0,2 1,2l0 0c1,1 2,2 4,3zm-1 -15c0,0 0,1 1,2 1,0 2,0 2,-1 1,-2 2,-4 3,-5 1,-2 0,-3 -2,-3 0,1 0,1 0,1 -2,2 -3,4 -4,6zm11 -13c-2,1 -1,3 1,3 0,-1 1,-1 1,-1 1,-1 3,-2 5,-3 1,-1 1,-3 -1,-3 0,0 -1,0 -1,0 -2,1 -4,2 -5,4zm13 -9c-1,1 0,3 1,3 1,0 1,0 1,0 2,-2 4,-2 6,-3 0,-1 1,-1 0,-2 0,-1 -1,-2 -2,-1 -2,1 -4,2 -6,3zm15 -7c-1,1 -1,4 1,3 0,0 0,0 0,0 2,0 4,-1 6,-1 2,-1 2,-3 0,-3 0,0 0,0 0,0 -2,0 -4,1 -7,1zm16 -3c-1,0 -2,2 0,3 0,0 1,0 1,0l-1 -3zm16 -4c-2,1 -2,3 0,4 0,0 1,0 1,0 2,-1 4,-2 6,-3 2,-1 1,-3 -1,-3 0,0 0,0 0,0 -2,1 -4,2 -6,2zm13 -7c-1,1 0,3 2,3 0,0 0,0 0,-1 2,-1 3,-3 5,-5 0,0 0,-1 0,-2 -1,-1 -3,-1 -3,0 -1,2 -3,4 -4,5zm7 -13c0,2 2,3 3,1 0,0 0,0 0,-1 0,-2 0,-4 0,-6l0 0c0,-1 0,-1 0,-1 -1,-1 -3,-1 -3,1 0,2 0,4 0,6l0 0zm-2 -15c0,2 3,1 3,-1 0,0 -1,0 -1,0l-2 1zm-11 -11c2,1 3,-1 2,-2 0,0 0,0 0,0 -2,-1 -4,-2 -7,-3 0,0 -1,0 -1,1 -1,0 -1,2 1,2 2,1 3,2 5,2zm-15 -3c2,0 3,-2 1,-3 0,0 0,0 -1,0 -2,0 -4,0 -6,0 -2,0 -2,3 -1,3 1,0 1,1 1,1 2,-1 4,-1 6,-1zm-16 1c2,0 3,-2 1,-3 0,0 0,0 -1,0 -2,0 -4,0 -6,0 -2,0 -2,3 -1,3 1,0 1,0 1,0 2,0 4,0 6,0zm-6 -9c0,1 2,3 3,1 0,0 0,0 0,0 1,-2 2,-5 2,-7 0,-1 -2,-2 -3,-1 0,0 0,0 0,1 -1,2 -1,4 -2,6zm3 -16c0,1 0,2 1,2 1,0 2,-1 2,-2 0,-2 0,-4 -1,-6 0,-1 -1,-2 -2,-1 -1,0 -1,1 -1,1 1,2 1,4 1,6zm-3 -15c1,2 3,1 3,0 0,-1 0,-1 0,-1 -1,-2 -1,-4 -2,-6 -1,-1 -3,-1 -3,0 0,1 0,1 0,1 1,2 1,4 2,6zm-7 -14c0,1 1,1 2,1 1,0 1,-2 0,-3 -1,-1 -2,-3 -4,-5 -1,-1 -3,1 -3,2 0,0 1,1 1,1 1,1 3,3 4,4zm-11 -10c0,0 1,0 1,0 1,-1 1,-2 0,-3 -2,-1 -3,-2 -5,-3 -2,-1 -3,1 -2,2 0,0 0,1 0,1 2,1 4,2 6,3zm-15 -7c1,1 2,0 2,0 1,-1 0,-2 -1,-3 -2,0 -4,-1 -6,-1 -1,0 -1,0 -2,1 -1,0 0,2 1,2 1,0 2,0 3,1 1,0 2,0 3,0zm-15 -5c0,1 1,1 1,2 1,0 3,0 3,-2l0 0c0,-1 0,-1 0,-1 0,0 0,-1 0,-1l0 0c0,-2 0,-3 0,-4 -1,-2 -3,-2 -4,-1 0,1 0,1 0,1 1,1 1,3 1,4 0,0 0,0 0,1l0 0c0,1 0,1 -1,1zm-2 -15c0,1 1,1 1,1 1,0 2,-1 2,-2l-1 -1 -1 1 1 -1c-1,-2 -2,-3 -3,-5 -1,-1 -4,0 -3,2 0,0 0,0 0,0 1,2 2,3 3,5 0,0 1,0 1,0zm-10 -11c1,1 3,-1 2,-2 0,0 -1,0 -1,0 -2,-2 -4,-3 -6,-3 0,-1 -1,-1 -1,0 -1,0 -1,2 0,3 2,0 4,1 6,2zm-15 -4c1,0 1,0 1,0 1,-1 1,-3 -1,-3 -2,0 -4,0 -7,0 0,1 -1,1 -1,2 0,1 1,2 2,2 2,-1 4,-1 6,-1zm-15 4c1,-1 1,-1 1,-2 0,-1 -1,-2 -2,-1 -2,0 -4,1 -6,2 -1,1 -1,3 1,3 0,0 0,0 0,0 2,-1 4,-2 6,-2zm-14 6c1,-1 1,-3 -1,-3 0,0 -1,0 -1,0 -2,1 -4,2 -6,3 0,0 -1,1 0,2 0,1 1,1 2,1 2,-1 4,-2 6,-3zm-15 7c2,-1 1,-3 -1,-3 0,0 0,0 0,0l-6 3c-2,1 -1,3 1,3 0,0 0,0 0,0l6 -3zm-9 -5c0,0 0,1 1,1 0,1 2,1 3,-1 0,-2 0,-4 0,-6 0,-2 -2,-3 -3,-1 0,0 0,0 0,1 0,2 0,4 -1,6zm1 -16c0,2 2,2 3,1 0,-1 0,-1 0,-1 -1,-2 -1,-5 -1,-7 -1,-2 -4,-1 -4,1 0,0 0,0 0,0 1,2 1,4 2,6zm-4 -15c0,2 3,1 3,-1 0,0 0,0 0,0 -1,-2 -2,-4 -3,-6 -1,-1 -1,-1 -2,-1 -1,0 -2,2 -1,2 1,2 2,4 3,6zm-8 -13c0,0 1,0 2,0 1,0 1,-2 0,-2 -1,-2 -3,-4 -4,-5 -1,-2 -4,0 -3,2 0,0 0,0 1,0 1,1 2,3 4,5zm-11 -11c1,1 3,-1 2,-3 0,0 0,0 -1,0 -1,-1 -3,-2 -5,-4 -2,0 -3,1 -2,3 0,0 0,0 0,0 2,1 4,2 6,4zm-14 -8c1,1 3,-1 2,-3 0,0 -1,0 -1,0 -2,-1 -4,-1 -6,-2 -1,0 -1,0 -2,0 -1,1 0,3 1,3 2,1 4,1 6,2z"/>
  <path class="fil21" d="M407 264c3,-11 15,-18 25,-16 11,2 20,12 20,23 0,6 -3,11 -6,15 -2,2 -4,4 -6,5 -9,5 -22,3 -29,-5 0,-1 -1,-2 -2,-3 -4,-5 -5,-13 -2,-19z"/>
  <path class="fil21" d="M366 168c22,-12 47,-19 72,-17 32,2 62,19 85,41 -6,6 -13,12 -19,19 -16,-16 -38,-27 -60,-30 -19,-3 -39,1 -57,9 -12,5 -22,13 -33,21 -6,-7 -14,-13 -20,-19 9,-10 20,-17 32,-24z"/>
  <path class="fil21" d="M418 203c24,-5 48,5 66,21 1,1 4,3 2,4 -6,7 -11,13 -17,20 -12,-12 -29,-19 -46,-18 -13,1 -24,9 -33,18 -7,-7 -14,-14 -20,-21 13,-12 30,-22 48,-24z"/>
 </g>
</svg>
